<svg width="1139" height="121" viewBox="0 0 1139 121" fill="none" xmlns="http://www.w3.org/2000/svg">
<path d="M1.7 107.22C1.87333 104.447 1.87333 101.803 1.7 99.29C1.52667 96.69 1.35333 94.09 1.18 91.49C1.09333 88.4567 0.963334 85.4667 0.790001 82.52C0.703334 79.4867 0.703334 76.4533 0.790001 73.42C0.876667 70.1267 1.22333 66.8333 1.83 63.54C2.52333 60.16 3.30333 56.8667 4.17 53.66C5.21 49.5867 5.55667 45.6 5.21 41.7C4.86333 38.4067 4.64667 35.1133 4.56 31.82C4.56 28.44 4.77667 25.1033 5.21 21.81C5.38333 20.8567 5.6 19.9033 5.86 18.95C6.20667 17.9967 6.38 17.0433 6.38 16.09C6.46667 15.31 6.51 14.5733 6.51 13.88C6.51 13.1867 6.42333 12.4933 6.25 11.8C5.81667 9.63333 6.55333 8.15999 8.46 7.37999C10.28 6.59999 12.1433 5.99333 14.05 5.55999C15.9567 5.04 17.9067 4.78 19.9 4.78C21.8067 4.78 22.76 5.68999 22.76 7.50999C22.8467 8.37666 22.89 9.2 22.89 9.98C22.89 10.76 22.89 11.54 22.89 12.32C22.89 13.7067 23.4533 14.14 24.58 13.62C26.4 12.9267 27.83 12.7967 28.87 13.23C29.91 13.5767 30.7767 15.1367 31.47 17.91C32.4233 22.07 33.3767 26.23 34.33 30.39C35.37 34.4633 36.28 38.58 37.06 42.74C37.4933 45.1667 37.7967 47.6367 37.97 50.15C38.23 52.5767 38.4033 55.0467 38.49 57.56C38.49 59.9867 38.8367 62.37 39.53 64.71C40.2233 67.05 40.8733 69.3467 41.48 71.6C42.1733 74.0267 42.78 76.4533 43.3 78.88C43.82 81.3067 44.2533 83.7767 44.6 86.29C45.0333 89.2367 45.51 92.2267 46.03 95.26C46.6367 98.2933 47.1133 101.327 47.46 104.36C47.72 106.18 47.8067 107.957 47.72 109.69C47.6333 111.51 47.2867 113.287 46.68 115.02C46.42 115.8 45.9867 116.32 45.38 116.58C44.86 116.927 44.2533 117.187 43.56 117.36C41.6533 117.707 39.8333 117.707 38.1 117.36C36.3667 117.013 34.6333 116.407 32.9 115.54C31.6 114.933 30.17 114.76 28.61 115.02C25.9233 115.28 23.1933 115.627 20.42 116.06C17.7333 116.493 15.0033 116.667 12.23 116.58C10.93 116.493 9.63 116.363 8.33 116.19C7.11667 116.103 5.90333 116.017 4.69 115.93C3.99667 115.757 3.65 115.497 3.65 115.15C3.39 113.677 2.82667 112.333 1.96 111.12C1.09333 109.907 1.00667 108.607 1.7 107.22ZM21.2 11.15C21.2 10.9767 21.2 10.7167 21.2 10.37C21.2 9.93666 21.1567 9.50333 21.07 9.07C20.9833 7.68333 20.7233 6.81667 20.29 6.47C19.9433 6.12333 19.0333 6.03666 17.56 6.20999C16.6067 6.29666 15.6533 6.46999 14.7 6.72999C13.7467 6.90333 12.7933 7.16333 11.84 7.50999C9.93333 8.03 8.76333 8.59333 8.33 9.19999C7.98333 9.72 7.94 11.02 8.2 13.1C8.2 13.5333 8.2 14.01 8.2 14.53C8.2 14.9633 8.15667 15.3967 8.07 15.83C8.07 16.4367 8.15667 16.9133 8.33 17.26C8.59 17.6067 9.11 17.7367 9.89 17.65C11.19 17.39 12.4467 17.1733 13.66 17C14.96 16.74 16.26 16.48 17.56 16.22C19.0333 15.8733 19.9867 15.3967 20.42 14.79C20.8533 14.0967 21.1133 12.8833 21.2 11.15ZM39.01 116.06C41.4367 116.147 42.91 115.887 43.43 115.28C44.0367 114.76 44.0367 113.46 43.43 111.38C42.2167 106.787 41.1333 102.15 40.18 97.47C39.3133 92.7033 38.6633 87.9367 38.23 83.17C37.97 78.9233 37.71 74.72 37.45 70.56C37.19 66.4 37.0167 62.1967 36.93 57.95C36.8433 54.6567 36.7133 51.4067 36.54 48.2C36.3667 44.9067 35.8033 41.6567 34.85 38.45C33.8967 35.1567 32.9867 31.82 32.12 28.44C31.34 25.06 30.4733 21.68 29.52 18.3C29.4333 17.8667 29.26 17.4333 29 17C28.8267 16.48 28.6533 16.0033 28.48 15.57C28.22 14.8767 27.6133 14.53 26.66 14.53C23.1933 14.4433 21.85 16.0033 22.63 19.21C23.4967 22.59 24.3633 25.97 25.23 29.35C26.1833 32.73 27.1367 36.0667 28.09 39.36C28.61 41.0933 29 42.87 29.26 44.69C29.52 46.51 29.5633 48.33 29.39 50.15C29.3033 50.93 29.26 51.71 29.26 52.49C29.26 53.27 29.26 54.0067 29.26 54.7C29.4333 58.7733 29.7367 62.8033 30.17 66.79C30.69 70.7767 31.1667 74.8067 31.6 78.88C32.0333 83.3867 32.25 87.8933 32.25 92.4C32.3367 96.9067 32.51 101.413 32.77 105.92C32.77 106.527 32.77 107.177 32.77 107.87C32.8567 108.477 32.8567 109.127 32.77 109.82C32.51 111.727 32.5533 112.983 32.9 113.59C33.2467 114.197 34.3733 114.803 36.28 115.41C36.7133 115.497 37.19 115.583 37.71 115.67C38.23 115.843 38.6633 115.973 39.01 116.06ZM11.71 115.28C13.8767 115.627 16.1733 115.497 18.6 114.89C21.1133 114.37 23.6267 114.067 26.14 113.98C27.0933 113.893 27.7 113.677 27.96 113.33C28.22 112.983 28.2633 112.377 28.09 111.51C27.57 108.217 27.18 104.88 26.92 101.5C26.7467 98.0333 26.66 94.5667 26.66 91.1C26.8333 78.5333 25.9233 66.14 23.93 53.92C23.3233 49.8467 22.6733 45.8167 21.98 41.83C21.2867 37.7567 20.7233 33.7267 20.29 29.74C20.1167 28.0067 19.9433 26.23 19.77 24.41C19.6833 22.59 19.9433 20.8133 20.55 19.08C20.9833 17.52 20.3767 16.9133 18.73 17.26C16.2167 17.8667 13.53 18.3867 10.67 18.82C8.59 19.08 7.42 20.25 7.16 22.33C6.9 23.9767 6.68333 25.6667 6.51 27.4C6.33667 29.0467 6.25 30.7367 6.25 32.47C6.16333 34.6367 6.12 36.8467 6.12 39.1C6.20667 41.2667 6.46667 43.39 6.9 45.47C7.16 46.5967 7.33333 47.6367 7.42 48.59C7.50667 49.5433 7.46333 50.5833 7.29 51.71C7.03 53.27 6.9 54.8733 6.9 56.52C6.9 58.08 6.85667 59.6833 6.77 61.33C6.77 64.19 6.72667 67.05 6.64 69.91C6.55333 72.77 6.64 75.63 6.9 78.49C7.07333 80.3967 7.03 82.3467 6.77 84.34C6.51 86.3333 6.38 88.3267 6.38 90.32C6.38 93.5267 6.38 96.7333 6.38 99.94C6.38 103.06 6.16333 106.137 5.73 109.17C5.47 111.25 5.34 112.68 5.34 113.46C5.42667 114.24 5.94667 114.673 6.9 114.76C7.85333 114.847 9.45667 115.02 11.71 115.28ZM30.17 111.77C30.69 111.077 30.95 110.47 30.95 109.95C30.95 109.43 30.9933 108.91 31.08 108.39C31.34 106.483 31.34 104.62 31.08 102.8C30.82 100.893 30.7333 98.9867 30.82 97.08C30.9067 94.3067 30.8633 91.5333 30.69 88.76C30.6033 85.9867 30.43 83.2567 30.17 80.57C29.91 77.2767 29.5633 73.94 29.13 70.56C28.6967 67.18 28.3067 63.8433 27.96 60.55C27.8733 59.6833 27.7867 58.8167 27.7 57.95C27.6133 57.0833 27.6133 56.2167 27.7 55.35C28.3933 51.0167 28.22 46.8567 27.18 42.87C26.14 38.7967 25.1 34.7667 24.06 30.78C23.8 29.8267 23.54 28.83 23.28 27.79C23.02 26.6633 22.5867 25.6667 21.98 24.8C22.0667 28.6133 22.24 32.4267 22.5 36.24C22.8467 39.9667 23.4533 43.6933 24.32 47.42C25.1 50.9733 25.7067 54.5267 26.14 58.08C26.5733 61.6333 26.9633 65.1867 27.31 68.74C27.4833 70.4733 27.6567 72.25 27.83 74.07C28.09 75.8033 28.1767 77.5367 28.09 79.27C28.0033 83.95 28.09 88.63 28.35 93.31C28.61 97.9033 28.9133 102.54 29.26 107.22C29.3467 107.827 29.4333 108.52 29.52 109.3C29.6067 110.08 29.8233 110.903 30.17 111.77ZM5.34 57.04C4.47333 58.9467 3.82333 61.2867 3.39 64.06C2.95667 66.7467 2.65333 69.6067 2.48 72.64C2.39333 75.5867 2.35 78.36 2.35 80.96C2.52333 85.5533 2.78333 90.1467 3.13 94.74C3.47667 99.3333 3.52 103.927 3.26 108.52C3.17333 108.78 3.13 109.04 3.13 109.3C3.21667 109.56 3.56333 109.863 4.17 110.21C4.77667 101.37 5.12333 92.53 5.21 83.69C5.38333 74.85 5.42667 65.9667 5.34 57.04ZM45.51 110.73C45.6833 103.97 45.1633 97.34 43.95 90.84C42.8233 84.2533 41.3067 77.71 39.4 71.21C39.4867 77.97 39.9633 84.6433 40.83 91.23C41.7833 97.8167 43.3433 104.317 45.51 110.73ZM125.799 67.96C126.319 66.7467 126.623 65.5767 126.709 64.45C126.883 63.2367 126.969 62.0233 126.969 60.81C127.056 58.6433 127.403 56.5633 128.009 54.57C128.616 52.5767 129.223 50.5833 129.829 48.59C131.303 43.7367 132.299 38.8833 132.819 34.03C133.339 29.09 133.253 24.1067 132.559 19.08C132.213 17.0867 132.213 15.05 132.559 12.97C132.906 10.89 133.123 8.80999 133.209 6.72999C133.209 5.94999 133.599 5.34333 134.379 4.90999C135.939 3.86999 137.543 3.21999 139.189 2.96C140.923 2.69999 142.613 3.13333 144.259 4.26C144.779 4.60666 145.343 4.95333 145.949 5.3C146.556 5.55999 147.163 5.64666 147.769 5.55999C149.936 5.3 151.236 6.6 151.669 9.46C152.363 13.4467 153.013 17.52 153.619 21.68C154.313 25.7533 154.963 29.8267 155.569 33.9C156.263 37.9733 156.783 42.1333 157.129 46.38C157.563 50.6267 158.343 54.7867 159.469 58.86C159.903 60.5067 160.423 62.11 161.029 63.67C161.723 65.23 162.373 66.79 162.979 68.35C164.713 72.5967 165.883 77.0167 166.489 81.61C167.183 86.2033 167.833 90.7967 168.439 95.39C168.699 97.3833 168.916 99.42 169.089 101.5C169.349 103.493 169.609 105.487 169.869 107.48C170.129 108.953 169.609 110.037 168.309 110.73C162.849 113.417 157.173 114.977 151.279 115.41C146.513 115.67 141.746 116.017 136.979 116.45C132.213 116.97 127.446 116.71 122.679 115.67C121.813 115.497 120.946 115.41 120.079 115.41C119.213 115.41 118.303 115.453 117.349 115.54C115.963 115.627 115.139 114.847 114.879 113.2C114.706 112.247 114.489 111.25 114.229 110.21C114.056 109.17 113.926 108.13 113.839 107.09C113.493 102.757 112.756 98.5533 111.629 94.48C110.589 90.4067 109.506 86.3767 108.379 82.39C107.253 78.0567 105.996 73.81 104.609 69.65C103.309 65.49 101.619 61.5467 99.5392 57.82C99.2792 57.2133 99.0192 56.6067 98.7592 56C98.4992 55.3933 97.9792 55.22 97.1992 55.48C96.5926 55.74 96.2459 56.2167 96.1592 56.91C96.0726 57.6033 96.0726 58.2967 96.1592 58.99C96.1592 61.07 96.2026 63.15 96.2892 65.23C96.3759 67.31 96.4626 69.3467 96.5492 71.34C96.7226 74.1133 96.7226 76.8867 96.5492 79.66C96.3759 82.3467 96.1592 85.0767 95.8992 87.85C95.5526 91.49 95.6392 95.0867 96.1592 98.64C96.6792 102.193 97.1126 105.747 97.4592 109.3C97.5459 109.82 97.5892 110.34 97.5892 110.86C97.6759 111.38 97.7192 111.9 97.7192 112.42C97.8926 114.76 97.0692 116.19 95.2492 116.71C93.7759 117.057 92.2592 117.317 90.6992 117.49C89.2259 117.663 87.7526 117.837 86.2792 118.01C83.5926 118.27 81.6859 117.49 80.5592 115.67C79.5192 113.85 78.9559 111.64 78.8692 109.04C78.8692 103.927 78.7392 98.8567 78.4792 93.83C78.1326 88.0233 78.0026 82.26 78.0892 76.54C78.1759 70.82 78.0892 65.1 77.8292 59.38C77.7426 56.3467 77.8292 53.3133 78.0892 50.28C78.4359 47.16 78.7392 44.1267 78.9992 41.18C79.4326 37.1933 79.8659 33.25 80.2992 29.35C80.7326 25.3633 81.1226 21.42 81.4692 17.52C81.6426 15.7 82.0326 13.9667 82.6392 12.32C83.2459 10.6733 83.5492 8.93999 83.5492 7.12C83.5492 6.59999 83.7226 6.25333 84.0692 6.07999C84.4159 5.81999 84.7626 5.64666 85.1092 5.55999C86.4092 5.12666 87.7092 4.86666 89.0092 4.78C90.3959 4.60666 91.7392 4.43333 93.0392 4.26C94.7726 4.08666 95.5526 5.04 95.3792 7.12C95.2926 8.59333 95.5092 9.89333 96.0292 11.02C96.6359 12.06 97.4159 12.97 98.3692 13.75C99.1492 14.3567 99.7992 15.05 100.319 15.83C100.926 16.61 101.446 17.4767 101.879 18.43C103.179 20.9433 104.523 23.4133 105.909 25.84C107.383 28.18 108.856 30.4767 110.329 32.73C111.543 34.6367 112.669 36.5867 113.709 38.58C114.836 40.5733 115.789 42.6967 116.569 44.95C117.783 48.33 119.039 51.6667 120.339 54.96C121.639 58.2533 122.896 61.59 124.109 64.97C124.283 65.4033 124.499 65.88 124.759 66.4C125.106 66.8333 125.453 67.3533 125.799 67.96ZM143.219 17C144.953 17.0867 145.949 16.9567 146.209 16.61C146.556 16.2633 146.599 15.31 146.339 13.75C146.253 13.1433 146.166 12.5367 146.079 11.93C145.993 11.3233 145.906 10.7167 145.819 10.11C145.473 7.33666 144.173 5.56 141.919 4.78C139.666 3.91333 137.673 4.34666 135.939 6.07999C135.159 6.94666 134.726 7.98666 134.639 9.19999C134.639 10.4133 134.596 11.6267 134.509 12.84C134.509 13.7067 134.943 14.3133 135.809 14.66C137.196 15.0933 138.539 15.5267 139.839 15.96C141.139 16.3067 142.266 16.6533 143.219 17ZM91.8692 5.95C91.2626 6.03666 90.6992 6.12333 90.1792 6.20999C89.7459 6.29666 89.3126 6.33999 88.8792 6.33999C86.3659 6.33999 85.0226 7.94332 84.8492 11.15C84.7626 12.6233 85.2826 13.23 86.4092 12.97C87.3626 12.7967 88.3159 12.6233 89.2692 12.45C90.2226 12.19 91.1759 12.0167 92.1292 11.93C92.5626 11.8433 92.9959 11.7567 93.4292 11.67C93.9492 11.4967 94.0792 10.9767 93.8192 10.11C93.6459 9.58999 93.5592 9.02666 93.5592 8.42C93.6459 7.72666 93.6026 7.11999 93.4292 6.6C93.2559 6.08 92.7359 5.86333 91.8692 5.95ZM143.739 79.27C143.913 84.47 144.086 89.7567 144.259 95.13C144.519 100.417 144.736 105.703 144.909 110.99C144.996 111.337 145.083 111.683 145.169 112.03C145.256 112.463 145.473 112.723 145.819 112.81C146.599 112.897 147.336 113.113 148.029 113.46C148.723 113.807 149.459 113.937 150.239 113.85C152.406 113.417 154.529 113.027 156.609 112.68C158.776 112.333 160.856 111.813 162.849 111.12C164.843 110.427 166.186 109.387 166.879 108C167.659 106.7 167.876 104.837 167.529 102.41C167.183 99.6367 166.836 96.8633 166.489 94.09C166.143 91.3167 165.796 88.5867 165.449 85.9C165.103 82.3467 164.453 78.9233 163.499 75.63C162.546 72.3367 161.463 69.0867 160.249 65.88C159.123 62.8467 158.169 59.7267 157.389 56.52C156.609 53.3133 156.003 50.0633 155.569 46.77C154.963 40.3567 154.053 34.0733 152.839 27.92C151.626 21.7667 150.629 15.5267 149.849 9.19999C149.763 8.50666 149.546 7.94333 149.199 7.50999C148.853 7.07666 148.376 6.98999 147.769 7.25C147.163 7.42333 146.903 7.81333 146.989 8.42C147.163 8.93999 147.293 9.41666 147.379 9.84999C147.726 11.4967 148.073 13.1867 148.419 14.92C148.853 16.5667 148.463 18.2567 147.249 19.99C147.163 20.1633 147.119 20.38 147.119 20.64C147.119 20.9 147.119 21.16 147.119 21.42C147.033 27.4867 146.729 33.5533 146.209 39.62C145.689 45.6867 145.386 51.7967 145.299 57.95C145.299 61.4167 145.169 64.9267 144.909 68.48C144.736 72.0333 144.346 75.63 143.739 79.27ZM144.389 47.16C144.563 43.0867 144.736 39.0567 144.909 35.07C145.169 30.9967 145.343 26.9667 145.429 22.98C145.516 21.2467 145.343 20.12 144.909 19.6C144.476 18.9933 143.566 18.56 142.179 18.3C141.573 18.1267 140.923 17.9533 140.229 17.78C139.623 17.6067 139.016 17.4333 138.409 17.26C136.763 16.74 135.679 16.74 135.159 17.26C134.639 17.6933 134.466 18.95 134.639 21.03C135.679 30.2167 134.769 39.1867 131.909 47.94C131.043 50.6267 130.219 53.3133 129.439 56C128.746 58.6867 128.443 61.5033 128.529 64.45C128.529 65.4033 128.443 66.4 128.269 67.44C128.096 68.48 127.923 69.4767 127.749 70.43C127.663 70.95 127.533 71.47 127.359 71.99C127.273 72.51 126.969 72.8133 126.449 72.9C125.929 72.9867 125.583 72.77 125.409 72.25C125.236 71.73 125.063 71.2967 124.889 70.95C124.023 68.6967 123.199 66.4867 122.419 64.32C121.639 62.1533 120.816 59.9867 119.949 57.82C118.389 53.66 116.309 49.7167 113.709 45.99C111.543 42.9567 109.289 40.01 106.949 37.15C104.696 34.2033 102.659 31.0833 100.839 27.79C99.1059 24.4967 97.8492 20.77 97.0692 16.61C97.0692 16.4367 96.9826 16.1767 96.8092 15.83C96.2026 14.01 94.9892 13.23 93.1692 13.49C91.9559 13.6633 90.6992 13.88 89.3992 14.14C88.1859 14.3133 86.9292 14.4867 85.6292 14.66C84.4159 14.7467 83.8959 15.57 84.0692 17.13C84.4159 21.1167 84.3292 25.06 83.8092 28.96C83.3759 32.7733 82.9859 36.63 82.6392 40.53C82.2926 45.73 82.0326 50.93 81.8592 56.13C81.6859 61.2433 81.6426 66.3567 81.7292 71.47C81.9026 76.15 82.0326 80.83 82.1192 85.51C82.2926 90.19 82.5092 94.87 82.7692 99.55C82.8559 101.89 82.7259 104.187 82.3792 106.44C82.0326 108.607 81.9026 110.817 81.9892 113.07C81.9892 113.677 82.0326 114.24 82.1192 114.76C82.2059 115.367 82.5526 115.843 83.1592 116.19C85.4992 117.49 87.6659 117.447 89.6592 116.06C91.7392 114.673 92.9526 112.42 93.2992 109.3C93.5592 107.133 93.6892 104.967 93.6892 102.8C93.7759 100.547 93.8626 98.3367 93.9492 96.17C94.0359 91.5767 94.3392 86.9833 94.8592 82.39C95.3792 77.7967 95.4659 73.2033 95.1192 68.61C95.0326 66.8767 94.8592 65.1433 94.5992 63.41C94.3392 61.59 94.3392 59.77 94.5992 57.95C94.7726 57.17 94.8592 56.3033 94.8592 55.35C94.8592 54.3967 95.2926 53.79 96.1592 53.53C97.1126 53.27 97.9359 53.4433 98.6292 54.05C99.3226 54.57 99.9292 55.2633 100.449 56.13C100.623 56.39 100.753 56.65 100.839 56.91C101.013 57.17 101.143 57.43 101.229 57.69C104.003 63.0633 106.126 68.7833 107.599 74.85C109.073 80.9167 110.676 86.8967 112.409 92.79C113.363 95.8233 114.013 98.9433 114.359 102.15C114.793 105.357 115.269 108.52 115.789 111.64C115.963 112.593 116.266 113.287 116.699 113.72C117.133 114.24 117.826 114.457 118.779 114.37C120.513 114.197 122.203 114.153 123.849 114.24C125.583 114.413 127.273 114.63 128.919 114.89C132.819 115.497 136.893 115.41 141.139 114.63C142.699 114.197 143.436 113.157 143.349 111.51C143.263 109.603 143.219 107.653 143.219 105.66C143.219 103.667 143.176 101.717 143.089 99.81C143.003 95.91 142.829 92.01 142.569 88.11C142.309 84.21 142.353 80.31 142.699 76.41C142.873 74.2433 143.046 72.12 143.219 70.04C143.393 67.8733 143.523 65.75 143.609 63.67C143.783 60.8967 143.913 58.1233 143.999 55.35C144.173 52.5767 144.303 49.8467 144.389 47.16ZM113.839 43.78C114.013 43.6933 114.099 43.6067 114.099 43.52C114.186 43.4333 114.273 43.3467 114.359 43.26C112.713 38.9267 110.589 34.94 107.989 31.3C105.389 27.66 102.919 23.9333 100.579 20.12C100.753 21.7667 101.013 23.37 101.359 24.93C101.793 26.4033 102.443 27.79 103.309 29.09C104.263 30.39 105.173 31.69 106.039 32.99C106.993 34.29 107.903 35.5467 108.769 36.76C109.636 37.8867 110.459 39.0567 111.239 40.27C112.106 41.3967 112.973 42.5667 113.839 43.78ZM223.875 61.07C223.875 62.1967 223.875 63.3667 223.875 64.58C223.962 65.7933 223.962 67.0067 223.875 68.22C223.788 70.3867 224.828 71.2967 226.995 70.95C228.382 70.69 229.768 70.43 231.155 70.17C232.628 69.91 234.058 69.6933 235.445 69.52C236.918 69.26 238.305 68.87 239.605 68.35C240.992 67.7433 242.032 66.7033 242.725 65.23C243.072 64.5367 243.505 64.1467 244.025 64.06C244.632 63.9733 245.195 63.8867 245.715 63.8C248.662 63.28 251.565 62.8033 254.425 62.37C257.372 61.9367 260.318 61.4167 263.265 60.81C264.738 60.55 265.778 60.7667 266.385 61.46C266.992 62.0667 267.382 62.9767 267.555 64.19C267.988 66.9633 267.988 69.6933 267.555 72.38C267.208 75.0667 266.992 77.7967 266.905 80.57C266.818 81.4367 266.428 82 265.735 82.26C265.128 82.52 264.478 82.65 263.785 82.65C260.838 82.5633 257.935 82.7367 255.075 83.17C252.215 83.5167 249.312 83.56 246.365 83.3C243.158 83.04 239.995 83.43 236.875 84.47C235.488 84.9033 234.015 85.1633 232.455 85.25C230.982 85.25 229.508 85.2067 228.035 85.12C225.782 84.86 224.655 85.8567 224.655 88.11C224.742 91.8367 224.785 95.6067 224.785 99.42C224.785 103.147 224.958 106.873 225.305 110.6C225.392 111.813 225.218 112.68 224.785 113.2C224.438 113.72 223.832 114.067 222.965 114.24C221.058 114.587 219.152 114.847 217.245 115.02C215.425 115.28 213.605 115.497 211.785 115.67C208.578 115.843 206.975 114.327 206.975 111.12C206.975 110.773 206.932 110.47 206.845 110.21C206.845 109.95 206.845 109.69 206.845 109.43C207.018 106.657 207.148 103.883 207.235 101.11C207.322 98.25 207.018 95.39 206.325 92.53C205.632 89.3233 205.632 86.16 206.325 83.04C207.105 79.8333 207.582 76.67 207.755 73.55C208.102 68.5233 208.188 63.54 208.015 58.6C207.842 53.66 207.495 48.72 206.975 43.78C206.195 36.5 206.542 29.1333 208.015 21.68C208.275 20.38 208.405 19.08 208.405 17.78C208.405 16.3933 208.448 15.05 208.535 13.75C208.708 11.3233 209.922 9.76333 212.175 9.07C218.935 6.72999 225.782 5.08333 232.715 4.13C239.735 3.17666 246.798 2.56999 253.905 2.31C256.592 2.22333 257.892 3.52333 257.805 6.20999C257.805 7.59666 257.805 8.98333 257.805 10.37C257.805 11.67 257.762 13.0133 257.675 14.4C257.588 16.3067 258.455 17.0867 260.275 16.74C262.008 16.48 263.698 16.1767 265.345 15.83C266.992 15.4833 268.682 15.3533 270.415 15.44C271.628 15.5267 272.582 15.7867 273.275 16.22C273.968 16.6533 274.402 17.4767 274.575 18.69C275.268 22.1567 275.702 25.71 275.875 29.35C276.048 32.99 276.308 36.5867 276.655 40.14C276.828 41.0067 276.612 41.6133 276.005 41.96C275.485 42.3067 274.878 42.61 274.185 42.87C272.365 43.7367 270.458 44.0833 268.465 43.91C266.558 43.7367 264.652 43.7367 262.745 43.91C258.498 44.2567 254.295 44.7333 250.135 45.34C245.975 45.86 241.858 46.7267 237.785 47.94C236.138 48.46 234.448 48.85 232.715 49.11C231.068 49.2833 229.378 49.4133 227.645 49.5C225.478 49.5 224.395 50.4967 224.395 52.49C224.482 53.8767 224.482 55.3067 224.395 56.78C224.395 58.1667 224.395 59.5967 224.395 61.07H223.875ZM250.265 3.73999C239.345 4.34666 228.555 5.90666 217.895 8.42C215.295 9.02666 213.432 9.58999 212.305 10.11C211.265 10.63 210.658 11.4533 210.485 12.58C210.312 13.62 210.182 15.3967 210.095 17.91C210.008 19.6433 210.182 20.7267 210.615 21.16C211.135 21.5067 212.262 21.5067 213.995 21.16C217.202 20.4667 220.278 19.73 223.225 18.95C226.258 18.0833 229.378 17.6933 232.585 17.78C234.838 17.78 237.135 18.1267 239.475 18.82C241.902 19.4267 244.198 19.47 246.365 18.95C248.705 18.43 250.525 18.1267 251.825 18.04C253.125 17.8667 254.035 17.6067 254.555 17.26C255.075 16.8267 255.378 15.96 255.465 14.66C255.552 13.36 255.595 11.28 255.595 8.42C255.595 6.77333 255.508 5.64666 255.335 5.03999C255.248 4.34666 254.815 3.95666 254.035 3.86999C253.342 3.69666 252.085 3.65333 250.265 3.73999ZM255.595 19.08C257.848 18.9067 259.278 19.4267 259.885 20.64C260.492 21.8533 260.882 23.3267 261.055 25.06C261.228 26.9667 261.358 28.83 261.445 30.65C261.618 32.47 261.618 34.3333 261.445 36.24C261.272 38.2333 261.228 39.6633 261.315 40.53C261.488 41.3967 262.008 41.9167 262.875 42.09C263.742 42.1767 265.172 42.22 267.165 42.22C267.858 42.1333 268.595 42.09 269.375 42.09C270.155 42.0033 270.892 41.9167 271.585 41.83C273.665 41.7433 274.575 40.6167 274.315 38.45C273.968 35.33 273.665 32.21 273.405 29.09C273.145 25.97 272.885 22.85 272.625 19.73C272.365 17.5633 271.152 16.61 268.985 16.87C266.818 17.2167 264.608 17.5633 262.355 17.91C260.102 18.2567 257.848 18.6467 255.595 19.08ZM235.575 21.29C233.235 19.99 230.895 19.47 228.555 19.73C227.428 19.8167 226.215 20.0767 224.915 20.51C223.615 20.9433 222.445 21.5067 221.405 22.2L235.575 21.29ZM259.365 34.81C259.452 33.0767 259.452 31.4733 259.365 30C259.365 28.5267 259.192 27.0533 258.845 25.58C258.412 23.4133 257.935 22.1567 257.415 21.81C256.982 21.4633 255.682 21.42 253.515 21.68C246.668 22.5467 239.735 23.24 232.715 23.76C225.782 24.1933 218.848 24.3233 211.915 24.15C210.962 24.0633 210.312 24.2367 209.965 24.67C209.618 25.1033 209.402 25.71 209.315 26.49C209.142 29.4367 208.882 32.3833 208.535 35.33C208.188 38.2767 208.188 41.2667 208.535 44.3C208.968 47.5067 209.315 50.7133 209.575 53.92C209.922 57.1267 210.008 60.3767 209.835 63.67C209.575 68.87 209.315 74.07 209.055 79.27C208.882 84.47 209.012 89.6267 209.445 94.74C209.878 99.8533 210.918 104.923 212.565 109.95C212.738 110.47 212.868 110.99 212.955 111.51C213.042 112.03 213.475 112.333 214.255 112.42C215.642 112.593 216.985 112.637 218.285 112.55C219.672 112.55 220.928 112.247 222.055 111.64C223.008 111.12 223.398 110.297 223.225 109.17C223.052 108.13 223.008 107.177 223.095 106.31C223.182 106.05 223.182 105.79 223.095 105.53C223.095 105.27 223.095 104.967 223.095 104.62C223.008 101.673 222.922 98.77 222.835 95.91C222.835 93.05 222.792 90.1467 222.705 87.2C222.618 84.6 223.875 83.3 226.475 83.3C228.035 83.3867 229.595 83.4733 231.155 83.56C232.715 83.56 234.232 83.3867 235.705 83.04C237.785 82.52 239.258 82.0433 240.125 81.61C240.992 81.1767 241.382 80.5267 241.295 79.66C241.295 78.7067 241.035 77.19 240.515 75.11C240.428 74.6767 240.342 74.2867 240.255 73.94C240.255 73.5067 240.212 73.1167 240.125 72.77C239.865 71.0367 238.825 70.3 237.005 70.56C235.272 70.9067 233.538 71.21 231.805 71.47C230.072 71.73 228.338 72.0767 226.605 72.51C224.785 72.8567 223.572 72.8133 222.965 72.38C222.445 71.9467 222.185 70.82 222.185 69C222.185 66.0533 222.228 63.1067 222.315 60.16C222.402 57.2133 222.445 54.2667 222.445 51.32C222.445 49.3267 223.485 48.2867 225.565 48.2C228.078 47.8533 230.635 47.55 233.235 47.29C235.922 47.03 238.478 46.4233 240.905 45.47C242.552 44.7767 244.198 44.3433 245.845 44.17C247.578 43.91 249.312 43.7367 251.045 43.65C253.732 43.39 255.638 43.13 256.765 42.87C257.892 42.5233 258.585 41.7867 258.845 40.66C259.105 39.4467 259.278 37.4967 259.365 34.81ZM246.235 69.39C246.408 70.6033 246.582 71.86 246.755 73.16C246.928 74.3733 247.102 75.5867 247.275 76.8C247.362 78.62 248.358 79.66 250.265 79.92C252.258 80.18 254.252 80.3967 256.245 80.57C258.238 80.7433 260.232 80.7867 262.225 80.7C262.918 80.7 263.482 80.6133 263.915 80.44C264.348 80.2667 264.608 79.79 264.695 79.01C264.868 76.67 265.085 74.3733 265.345 72.12C265.692 69.78 265.692 67.44 265.345 65.1C265.258 63.8867 264.955 63.15 264.435 62.89C263.915 62.5433 263.092 62.4567 261.965 62.63C260.058 62.9767 258.108 63.3667 256.115 63.8C254.208 64.1467 252.258 64.4067 250.265 64.58C248.618 64.7533 247.448 65.1867 246.755 65.88C246.062 66.4867 245.888 67.6567 246.235 69.39ZM242.205 70.43C242.118 72.1633 242.335 73.8533 242.855 75.5C243.375 77.06 243.808 78.7067 244.155 80.44C244.242 80.8733 244.458 81.2633 244.805 81.61C245.152 81.87 245.585 81.9133 246.105 81.74C246.972 81.3933 247.232 81.0467 246.885 80.7C246.538 80.2667 246.278 79.8767 246.105 79.53C245.498 78.0567 245.108 76.54 244.935 74.98C244.762 73.42 244.588 71.86 244.415 70.3C244.328 69.8667 244.285 69.39 244.285 68.87C244.372 68.35 244.112 68.09 243.505 68.09C242.812 68.09 242.422 68.35 242.335 68.87C242.248 69.39 242.205 69.91 242.205 70.43ZM208.795 107.35V112.42C208.882 113.027 209.098 113.503 209.445 113.85C209.792 114.197 210.268 114.283 210.875 114.11C211.568 113.85 211.742 113.547 211.395 113.2C211.135 112.853 210.962 112.55 210.875 112.29C210.702 111.337 210.528 110.427 210.355 109.56C210.182 108.693 209.662 107.957 208.795 107.35ZM308.936 65.36C307.982 60.5067 308.286 56.0867 309.846 52.1C311.406 48.0267 313.269 44.04 315.436 40.14C317.429 36.5 319.596 33.0333 321.936 29.74C324.276 26.36 326.572 22.9367 328.826 19.47C332.379 14.0967 336.756 10.11 341.956 7.50999C347.156 4.90999 353.092 4 359.766 4.78C361.326 4.86666 362.886 5.04 364.446 5.3C366.006 5.47333 367.566 5.64666 369.126 5.82C372.679 6.16666 375.539 7.33666 377.706 9.32999C379.959 11.3233 381.606 14.0533 382.646 17.52C383.599 20.8133 384.206 24.15 384.466 27.53C384.812 30.8233 385.029 34.16 385.116 37.54C385.289 42.9133 385.376 48.33 385.376 53.79C385.462 59.1633 384.899 64.4933 383.686 69.78C382.559 74.5467 381.086 79.2267 379.266 83.82C377.446 88.4133 374.759 92.6167 371.206 96.43C370.686 96.95 370.166 97.47 369.646 97.99C369.126 98.51 368.519 98.9 367.826 99.16C364.619 100.373 361.802 102.193 359.376 104.62C357.036 106.96 354.782 109.387 352.616 111.9C349.929 115.107 346.852 117.143 343.386 118.01C339.919 118.963 336.192 119.18 332.206 118.66C329.692 118.313 327.656 117.317 326.096 115.67C324.622 114.11 323.236 112.42 321.936 110.6C318.989 106.527 316.606 102.193 314.786 97.6C313.052 93.0067 312.142 88.0667 312.056 82.78C311.969 79.7467 311.406 76.8433 310.366 74.07C309.326 71.21 308.849 68.3067 308.936 65.36ZM329.216 20.51C330.516 20.51 331.556 20.3367 332.336 19.99C333.202 19.6433 333.982 19.34 334.676 19.08C342.042 16.3067 347.719 17.3033 351.706 22.07C354.306 25.45 356.212 29.3933 357.426 33.9C358.379 37.4533 358.986 41.0933 359.246 44.82C359.592 48.5467 360.372 52.1867 361.586 55.74C361.846 56.6067 362.062 57.56 362.236 58.6C362.496 59.64 362.539 60.68 362.366 61.72C362.019 64.9267 361.889 68.1767 361.976 71.47C362.062 74.6767 362.582 77.84 363.536 80.96C364.316 83.4733 364.446 85.9433 363.926 88.37C363.492 90.7967 362.886 93.18 362.106 95.52C361.846 96.3 361.542 97.08 361.196 97.86C360.849 98.64 360.806 99.55 361.066 100.59C362.799 100.07 364.359 99.42 365.746 98.64C367.219 97.86 368.519 96.8633 369.646 95.65C373.199 91.8367 375.929 87.59 377.836 82.91C379.829 78.1433 381.259 73.29 382.126 68.35C383.512 60.8967 384.119 53.3567 383.946 45.73C383.772 38.1033 383.166 30.52 382.126 22.98C381.866 20.8133 381.432 18.69 380.826 16.61C380.219 14.53 379.179 12.71 377.706 11.15C376.319 9.50333 374.326 8.41999 371.726 7.89999C367.652 6.94666 363.492 6.34 359.246 6.07999C355.086 5.73333 350.882 6.03666 346.636 6.99C342.909 7.85666 339.702 9.54666 337.016 12.06C334.329 14.4867 331.729 17.3033 329.216 20.51ZM358.336 51.97C358.249 50.67 358.162 49.37 358.076 48.07C358.076 46.77 357.946 45.5133 357.686 44.3C356.992 41.0933 356.299 37.93 355.606 34.81C354.912 31.69 353.742 28.6567 352.096 25.71C350.622 23.11 348.802 21.3333 346.636 20.38C344.469 19.34 342.216 18.95 339.876 19.21C337.536 19.3833 335.282 20.0333 333.116 21.16C330.949 22.2 329.129 23.5 327.656 25.06C329.822 24.3667 331.859 23.5433 333.766 22.59C335.759 21.6367 337.839 21.1167 340.006 21.03C342.866 20.77 345.466 21.4633 347.806 23.11C350.232 24.67 351.749 26.75 352.356 29.35C352.789 31.6033 353.222 33.8567 353.656 36.11C354.176 38.3633 354.696 40.6167 355.216 42.87C355.649 44.43 355.996 45.99 356.256 47.55C356.602 49.11 357.296 50.5833 358.336 51.97ZM360.806 70.82C360.719 69.4333 360.589 68.09 360.416 66.79C360.329 65.49 360.112 64.1467 359.766 62.76C359.072 59.4667 358.076 56.3033 356.776 53.27C355.562 50.15 354.609 46.9867 353.916 43.78C353.396 41.2667 352.832 38.84 352.226 36.5C351.706 34.16 351.099 31.7767 350.406 29.35C349.886 27.4433 348.802 25.7967 347.156 24.41C345.596 23.0233 343.906 22.33 342.086 22.33C338.619 22.4167 335.326 23.11 332.206 24.41C329.086 25.71 326.269 27.66 323.756 30.26C321.762 32.2533 320.116 34.5067 318.816 37.02C317.516 39.5333 316.129 42.0033 314.656 44.43C311.882 49.1967 310.322 54.05 309.976 58.99C309.629 63.8433 310.279 68.8267 311.926 73.94C314.092 80.7 316.649 87.2867 319.596 93.7C322.629 100.113 325.489 106.57 328.176 113.07C328.349 113.417 328.566 113.72 328.826 113.98C329.086 114.327 329.389 114.543 329.736 114.63C333.722 115.497 337.622 115.497 341.436 114.63C345.336 113.763 348.499 111.423 350.926 107.61C354.479 101.977 357.166 96.1267 358.986 90.06C360.892 83.9933 361.499 77.58 360.806 70.82ZM348.066 77.19C348.499 79.27 348.542 81.48 348.196 83.82C347.849 86.0733 347.286 88.37 346.506 90.71C345.812 93.1367 344.296 95.0867 341.956 96.56C339.616 97.9467 336.886 98.7267 333.766 98.9C331.339 98.9867 329.432 98.4233 328.046 97.21C326.659 95.91 325.532 94.22 324.666 92.14C323.626 89.4533 322.586 86.7667 321.546 84.08C320.592 81.3933 320.289 78.62 320.636 75.76C321.069 72.8133 321.459 69.8667 321.806 66.92C322.152 63.9733 322.759 61.07 323.626 58.21C324.406 55.9567 325.316 53.79 326.356 51.71C327.396 49.63 328.869 47.81 330.776 46.25C333.202 44.2567 335.716 43.7367 338.316 44.69C339.616 45.1233 340.526 45.9033 341.046 47.03C341.652 48.07 341.999 49.24 342.086 50.54C342.259 53.2267 342.736 55.87 343.516 58.47C344.296 61.07 345.119 63.67 345.986 66.27C346.506 67.9167 346.982 69.6067 347.416 71.34C347.849 73.0733 348.066 75.0233 348.066 77.19ZM346.506 76.67C346.419 75.4567 346.289 74.2867 346.116 73.16C346.029 72.0333 345.812 70.9067 345.466 69.78C344.426 66.5733 343.429 63.41 342.476 60.29C341.522 57.0833 340.786 53.8333 340.266 50.54C339.919 47.7667 338.879 46.1633 337.146 45.73C335.412 45.21 333.462 45.86 331.296 47.68C328.349 50.28 326.442 53.3133 325.576 56.78C324.709 60.2467 323.929 63.7567 323.236 67.31C322.889 69.2167 322.586 71.21 322.326 73.29C322.152 75.2833 322.196 77.2767 322.456 79.27C322.802 81.6967 323.366 84.0367 324.146 86.29C325.012 88.5433 326.009 90.7533 327.136 92.92C327.569 93.96 328.176 94.87 328.956 95.65C329.736 96.3433 330.689 96.82 331.816 97.08C334.502 97.6867 337.189 97.2533 339.876 95.78C342.562 94.22 344.339 92.0967 345.206 89.41C345.899 87.33 346.376 85.25 346.636 83.17C346.982 81.0033 346.939 78.8367 346.506 76.67ZM354.436 106.05C356.949 103.017 358.769 99.7667 359.896 96.3C361.022 92.7467 361.759 89.0633 362.106 85.25C361.239 88.89 360.112 92.4 358.726 95.78C357.339 99.16 355.909 102.583 354.436 106.05ZM318.426 100.85C318.599 98.1633 318.296 95.78 317.516 93.7C316.822 91.5333 315.782 89.3667 314.396 87.2C314.396 89.8 314.656 92.2267 315.176 94.48C315.696 96.6467 316.779 98.77 318.426 100.85ZM325.446 111.77C325.099 110.037 324.536 108.477 323.756 107.09C323.062 105.617 322.239 104.187 321.286 102.8C321.719 104.447 322.152 106.05 322.586 107.61C323.106 109.17 324.059 110.557 325.446 111.77ZM587.64 70.56C587.554 70.9067 587.467 71.21 587.38 71.47C587.38 71.6433 587.38 71.8167 587.38 71.99C587.64 78.4033 587.467 84.8167 586.86 91.23C586.34 97.5567 585.994 103.883 585.82 110.21C585.734 111.77 585.387 112.94 584.78 113.72C584.174 114.5 582.96 114.847 581.14 114.76C577.587 114.5 573.99 115.063 570.35 116.45C567.317 117.663 564.327 117.923 561.38 117.23C558.434 116.537 555.444 115.973 552.41 115.54C551.11 115.367 550.2 114.717 549.68 113.59C549.16 112.55 548.9 111.38 548.9 110.08C548.814 106.007 549.03 101.933 549.55 97.86C550.07 93.7867 550.374 89.7133 550.46 85.64C550.547 78.9667 551.37 72.4667 552.93 66.14C554.577 59.8133 555.877 53.4433 556.83 47.03C557.09 45.2967 557.264 43.52 557.35 41.7C557.437 39.7933 557.524 37.93 557.61 36.11C557.61 34.1167 558.52 32.8167 560.34 32.21C562.94 31.17 565.454 30 567.88 28.7C570.307 27.3133 572.864 26.2733 575.55 25.58C576.59 25.32 577.24 24.8433 577.5 24.15C577.76 23.4567 577.847 22.6767 577.76 21.81C577.674 19.8167 577.717 17.78 577.89 15.7C578.064 13.62 578.324 11.5833 578.67 9.59C578.93 7.76999 579.927 6.64333 581.66 6.20999C585.214 5.17 588.767 4.30333 592.32 3.61C595.96 2.91666 599.644 2.26666 603.37 1.66C605.624 1.22666 606.88 2.22333 607.14 4.65C607.314 6.03666 607.487 7.46666 607.66 8.94C607.834 10.4133 608.007 11.8867 608.18 13.36C608.7 16.5667 610.477 17.6933 613.51 16.74C614.637 16.3067 615.72 15.8733 616.76 15.44C617.887 14.92 618.97 14.4433 620.01 14.01C621.224 13.4033 622.09 13.2733 622.61 13.62C623.217 13.88 623.65 14.66 623.91 15.96C626.684 27.5733 629.327 39.2733 631.84 51.06C634.354 62.76 636.434 74.5467 638.08 86.42C638.514 89.6267 639.12 92.8333 639.9 96.04C640.767 99.2467 641.59 102.453 642.37 105.66C643.15 108.953 641.85 111.163 638.47 112.29C633.79 113.85 629.067 115.28 624.3 116.58C619.534 117.88 614.724 118.92 609.87 119.7C607.877 120.047 605.97 119.44 604.15 117.88C602.33 116.407 601.334 114.673 601.16 112.68C600.814 108.087 600.207 103.537 599.34 99.03C598.474 94.4367 597.694 89.8433 597 85.25C596.74 83.43 596.437 81.6533 596.09 79.92C595.83 78.1 595.657 76.28 595.57 74.46C595.57 74.0267 595.484 73.5067 595.31 72.9C595.224 72.2067 594.92 72.0767 594.4 72.51C593.36 73.29 592.494 73.55 591.8 73.29C591.107 73.03 590.414 72.5967 589.72 71.99C589.114 71.2967 588.42 70.82 587.64 70.56ZM579.45 19.6C579.537 20.7267 579.624 21.81 579.71 22.85C579.884 23.8033 580.837 24.1067 582.57 23.76C586.037 23.0667 589.504 22.3733 592.97 21.68C596.524 20.9867 599.947 19.9033 603.24 18.43C604.454 17.8233 605.277 17.13 605.71 16.35C606.23 15.57 606.274 14.4867 605.84 13.1C605.58 12.06 605.364 10.9767 605.19 9.84999C605.104 8.72333 605.017 7.59667 604.93 6.47C604.844 4.30333 603.674 3.43666 601.42 3.86999C599.34 4.21666 597.217 4.47666 595.05 4.65C592.97 4.82333 590.934 5.25666 588.94 5.95C586.427 6.73 584.564 7.29333 583.35 7.64C582.137 7.89999 581.314 8.28999 580.88 8.81C580.447 9.24333 580.187 10.0667 580.1 11.28C580.014 12.4933 579.84 14.4 579.58 17C579.494 17.4333 579.45 17.8667 579.45 18.3C579.45 18.7333 579.45 19.1667 579.45 19.6ZM558.13 109.56C558.217 110.427 558.26 111.337 558.26 112.29C558.347 113.33 558.954 114.153 560.08 114.76C562.42 115.887 564.977 115.973 567.75 115.02C570.61 114.067 572.56 112.377 573.6 109.95C575.16 106.743 576.157 103.32 576.59 99.68C577.024 94.8267 577.544 90.0167 578.15 85.25C578.757 80.4833 578.974 75.6733 578.8 70.82C578.8 68.0467 579.234 66.14 580.1 65.1C580.967 64.06 582.787 63.28 585.56 62.76C587.64 62.4133 589.677 62.0233 591.67 61.59C593.75 61.07 595.83 60.5067 597.91 59.9C598.777 59.64 599.687 59.51 600.64 59.51C601.594 59.4233 602.504 59.3367 603.37 59.25C605.797 58.9033 607.357 59.9867 608.05 62.5C608.744 64.6667 609.177 66.8333 609.35 69C609.61 71.08 609.827 73.2033 610 75.37C610.434 79.9633 610.867 84.6 611.3 89.28C611.82 93.8733 612.254 98.4667 612.6 103.06C612.86 106.18 614.464 107.393 617.41 106.7C619.664 106.18 621.874 105.66 624.04 105.14C626.207 104.62 628.374 104.143 630.54 103.71C632.534 103.363 633.27 102.237 632.75 100.33C632.404 98.5967 632.057 96.8633 631.71 95.13C631.364 93.31 630.974 91.5767 630.54 89.93C628.374 81.5233 625.947 73.2033 623.26 64.97C620.66 56.65 618.277 48.2867 616.11 39.88C615.244 36.5867 614.29 33.3367 613.25 30.13C612.21 26.8367 610.954 23.6733 609.48 20.64C609.134 19.86 608.744 19.2967 608.31 18.95C607.964 18.6033 607.314 18.6467 606.36 19.08C602.894 20.9 599.254 22.2433 595.44 23.11C591.627 23.89 587.814 24.67 584 25.45C581.747 25.8833 580.187 27.2267 579.32 29.48C576.46 36.8467 573.687 44.2567 571 51.71C568.4 59.0767 565.93 66.4867 563.59 73.94C561.684 79.7467 560.297 85.64 559.43 91.62C558.564 97.5133 558.13 103.493 558.13 109.56ZM583.61 73.03C583.524 69.91 583.697 68.09 584.13 67.57C584.65 66.9633 586.124 66.8767 588.55 67.31C589.33 67.3967 590.11 67.44 590.89 67.44C591.757 67.44 592.624 67.44 593.49 67.44C595.744 67.3533 597.304 67.6567 598.17 68.35C599.037 69.0433 599.73 70.5167 600.25 72.77C601.724 79.53 602.85 86.3767 603.63 93.31C604.41 100.157 605.58 106.917 607.14 113.59C607.487 115.15 607.964 116.19 608.57 116.71C609.264 117.23 610.434 117.36 612.08 117.1C616.154 116.407 620.14 115.453 624.04 114.24C627.94 113.027 631.884 111.857 635.87 110.73C637.69 110.21 638.86 109.43 639.38 108.39C639.987 107.35 640.074 105.963 639.64 104.23C638.34 98.4233 637.084 92.5733 635.87 86.68C634.744 80.7867 633.747 74.8933 632.88 69C631.754 60.94 630.194 52.9667 628.2 45.08C626.207 37.1933 623.694 29.4367 620.66 21.81C620.314 20.8567 619.837 20.0333 619.23 19.34C618.71 18.6467 617.844 18.6467 616.63 19.34C615.85 19.6867 614.94 20.0767 613.9 20.51C612.86 20.8567 612.6 21.8533 613.12 23.5C614.854 28.7 616.457 33.9433 617.93 39.23C619.49 44.5167 621.05 49.8467 622.61 55.22C624.604 62.3267 626.684 69.4767 628.85 76.67C631.104 83.7767 633.054 90.97 634.7 98.25C635.307 100.503 635.61 102.107 635.61 103.06C635.61 104.013 635.177 104.707 634.31 105.14C633.444 105.487 631.884 105.877 629.63 106.31C629.37 106.31 629.067 106.353 628.72 106.44C628.46 106.527 628.2 106.57 627.94 106.57C625.427 106.917 622.957 107.437 620.53 108.13C618.104 108.823 615.634 109.213 613.12 109.3C610.607 109.3 608.917 108.953 608.05 108.26C607.27 107.567 606.794 106.05 606.62 103.71C606.014 97.6433 605.407 91.62 604.8 85.64C604.28 79.66 604.02 73.6367 604.02 67.57C604.02 66.9633 603.89 66.3567 603.63 65.75C603.457 65.0567 603.414 64.45 603.5 63.93C603.674 63.3233 604.28 62.8467 605.32 62.5C605.667 62.4133 605.71 62.1967 605.45 61.85C605.277 61.5033 605.06 61.2867 604.8 61.2C604.367 61.1133 603.89 61.0267 603.37 60.94C602.937 60.8533 602.504 60.8533 602.07 60.94C598.95 61.6333 595.83 62.37 592.71 63.15C589.677 63.8433 586.644 64.58 583.61 65.36C581.877 65.88 581.01 67.1367 581.01 69.13C581.01 70.8633 580.967 72.64 580.88 74.46C580.88 76.1933 580.794 77.9267 580.62 79.66C580.014 84.6867 579.58 89.7567 579.32 94.87C579.06 99.9833 578.02 104.967 576.2 109.82C576.027 110.167 575.81 110.643 575.55 111.25C575.29 111.857 575.507 112.29 576.2 112.55C576.894 112.723 577.414 112.55 577.76 112.03C578.194 111.597 578.454 111.077 578.54 110.47C578.887 108.39 579.234 106.31 579.58 104.23C579.927 102.15 580.23 100.07 580.49 97.99C580.924 93.6567 581.487 89.3667 582.18 85.12C582.96 80.7867 583.437 76.7567 583.61 73.03ZM551.11 107.35C551.11 108.217 551.11 108.953 551.11 109.56C551.11 110.167 551.154 110.73 551.24 111.25C551.414 112.983 552.28 113.763 553.84 113.59C555.14 113.59 555.79 112.81 555.79 111.25V109.82C555.704 101.327 556.57 92.9633 558.39 84.73C560.297 76.4967 562.724 68.3933 565.67 60.42C567.49 55.48 569.267 50.54 571 45.6C572.82 40.5733 574.597 35.5467 576.33 30.52C576.504 30.0867 576.677 29.6533 576.85 29.22C577.11 28.7 577.024 28.2667 576.59 27.92C576.244 27.4867 575.854 27.4 575.42 27.66C574.987 27.92 574.554 28.1367 574.12 28.31C572.127 29.1767 570.134 30.0867 568.14 31.04C566.147 31.9067 564.154 32.8167 562.16 33.77C561.294 34.1167 560.73 34.5933 560.47 35.2C560.297 35.8067 560.167 36.5433 560.08 37.41C559.907 40.0967 559.69 42.8267 559.43 45.6C559.257 48.3733 558.824 51.1033 558.13 53.79C555.617 62.7167 553.97 71.6867 553.19 80.7C552.497 89.7133 551.804 98.5967 551.11 107.35ZM597.52 39.36C597.434 41.18 597.304 43.0433 597.13 44.95C596.957 46.8567 596.784 48.7633 596.61 50.67C596.35 53.3567 594.964 54.83 592.45 55.09C590.977 55.1767 589.46 55.3933 587.9 55.74C586.427 56 584.954 56.26 583.48 56.52C582.267 56.6933 581.487 56.52 581.14 56C580.794 55.3933 580.664 54.6133 580.75 53.66C581.01 51.9267 581.444 50.2367 582.05 48.59C582.744 46.8567 583.307 45.1667 583.74 43.52C584.174 42.1333 584.607 40.79 585.04 39.49C585.56 38.19 586.08 36.89 586.6 35.59C586.774 35.1567 586.99 34.68 587.25 34.16C587.51 33.64 587.814 33.2067 588.16 32.86C590.067 31.04 592.234 30.4333 594.66 31.04C595.787 31.2133 596.394 31.82 596.48 32.86C596.654 33.8133 596.827 34.7667 597 35.72C597.087 36.3267 597.174 36.9333 597.26 37.54C597.347 38.06 597.434 38.6667 597.52 39.36ZM595.31 38.32C595.05 37.3667 594.92 36.37 594.92 35.33C595.007 34.29 594.444 33.5967 593.23 33.25C591.844 32.8167 590.804 33.0767 590.11 34.03C589.417 34.9833 588.854 35.98 588.42 37.02C587.814 38.6667 587.207 40.3133 586.6 41.96C586.08 43.52 585.517 45.1667 584.91 46.9C584.477 48.0267 583.914 49.3267 583.22 50.8C582.614 52.1867 582.7 53.27 583.48 54.05C584.26 54.83 585.387 54.96 586.86 54.44C588.334 53.92 589.72 53.6167 591.02 53.53C593.1 53.4433 594.227 52.23 594.4 49.89C594.487 47.8967 594.617 45.9467 594.79 44.04C595.05 42.1333 595.224 40.2267 595.31 38.32ZM606.75 66.53C606.837 73.03 607.054 79.53 607.4 86.03C607.834 92.4433 608.614 98.8567 609.74 105.27C610.174 105.27 610.477 105.227 610.65 105.14C610.044 98.7267 609.394 92.3133 608.7 85.9C608.094 79.4 607.444 72.9433 606.75 66.53ZM584.78 86.42C583.914 89.1933 583.35 92.0533 583.09 95C582.917 97.9467 582.57 100.85 582.05 103.71C581.877 104.837 581.704 105.963 581.53 107.09C581.357 108.217 581.184 109.387 581.01 110.6C581.01 110.947 581.054 111.293 581.14 111.64C581.227 112.073 581.53 112.333 582.05 112.42C582.484 112.507 582.787 112.377 582.96 112.03C583.22 111.77 583.394 111.467 583.48 111.12C583.567 110.687 583.654 110.253 583.74 109.82C583.827 109.473 583.87 109.083 583.87 108.65C584.044 105.01 584.217 101.327 584.39 97.6C584.564 93.8733 584.694 90.1467 584.78 86.42ZM728.091 48.85C728.265 49.4567 728.611 49.76 729.131 49.76C731.125 50.1067 732.685 50.9733 733.811 52.36C735.025 53.7467 736.065 55.35 736.931 57.17C737.538 58.2967 738.101 59.2067 738.621 59.9C739.055 60.5067 739.488 61.1567 739.921 61.85C740.441 62.4567 740.918 63.1067 741.351 63.8C742.825 66.0533 743.475 68.35 743.301 70.69C743.215 72.9433 742.565 75.1967 741.351 77.45C739.705 80.57 737.581 83.5167 734.981 86.29C734.808 86.4633 734.678 86.55 734.591 86.55C731.991 87.9367 729.955 89.8867 728.481 92.4C727.008 94.9133 725.318 97.2533 723.411 99.42C720.985 102.193 718.168 103.407 714.961 103.06C714.355 103.06 714.008 102.93 713.921 102.67C713.228 101.023 712.231 99.7233 710.931 98.77C709.631 97.73 708.548 96.5167 707.681 95.13C705.861 92.3567 704.215 89.4967 702.741 86.55C701.355 83.5167 699.968 80.4833 698.581 77.45C698.408 77.0167 698.235 76.6267 698.061 76.28C697.975 75.9333 697.758 75.63 697.411 75.37C697.065 75.63 696.891 75.9767 696.891 76.41C696.891 76.7567 696.848 77.1467 696.761 77.58C696.675 80.8733 696.588 84.21 696.501 87.59C696.501 90.8833 696.545 94.1767 696.631 97.47C696.718 100.157 696.675 102.887 696.501 105.66C696.415 108.433 695.678 111.12 694.291 113.72C693.251 115.627 692.038 116.797 690.651 117.23C689.265 117.75 687.878 118.01 686.491 118.01C685.191 118.01 683.805 117.923 682.331 117.75C681.031 117.49 680.078 116.797 679.471 115.67C677.478 112.117 675.831 108.433 674.531 104.62C673.231 100.807 672.668 96.7767 672.841 92.53C672.928 90.5367 672.798 88.63 672.451 86.81C672.105 84.99 671.715 83.17 671.281 81.35C670.068 76.8433 669.418 72.3367 669.331 67.83C669.331 63.2367 669.548 58.6867 669.981 54.18C670.415 50.6267 670.545 47.03 670.371 43.39C670.285 41.6567 670.285 39.9233 670.371 38.19C670.458 36.37 670.805 34.6367 671.411 32.99C672.105 31.17 672.538 29.35 672.711 27.53C672.885 25.6233 672.971 23.7167 672.971 21.81C672.971 19.73 673.101 17.7367 673.361 15.83C673.968 11.41 676.308 8.41999 680.381 6.85999C683.068 5.82 685.755 5.12666 688.441 4.78C691.215 4.43333 693.988 4.17333 696.761 4C699.535 3.82666 702.221 3.86999 704.821 4.13C707.508 4.30333 710.195 4.73666 712.881 5.43C713.575 5.60333 714.268 5.60333 714.961 5.43C715.741 5.25666 716.435 4.99667 717.041 4.65C718.775 3.78333 720.421 3.47999 721.981 3.73999C723.715 4.08666 725.405 4.26 727.051 4.26C728.698 4.17333 730.345 4.13 731.991 4.13C736.585 4.30333 740.441 6.07999 743.561 9.46C746.681 12.7533 748.285 16.9133 748.371 21.94C748.458 24.28 748.371 26.62 748.111 28.96C747.851 31.3 747.288 33.5967 746.421 35.85C744.515 41.05 741.135 44.56 736.281 46.38C734.895 46.8133 733.508 47.2467 732.121 47.68C730.821 48.0267 729.478 48.4167 728.091 48.85ZM695.851 67.05C696.025 66.4433 696.111 65.9233 696.111 65.49C696.111 65.0567 696.068 64.6667 695.981 64.32C695.895 63.8867 695.765 63.3667 695.591 62.76C695.418 62.1533 695.548 61.7633 695.981 61.59C696.501 61.33 696.891 61.46 697.151 61.98C697.498 62.5 697.845 62.9767 698.191 63.41C698.191 63.4967 698.191 63.5833 698.191 63.67C698.278 63.67 698.321 63.7133 698.321 63.8C704.561 75.3267 710.065 87.2433 714.831 99.55C715.351 100.85 716.045 101.067 716.911 100.2C718.211 98.9 719.468 97.6 720.681 96.3C721.981 95 723.151 93.57 724.191 92.01C725.751 89.8433 725.621 87.6333 723.801 85.38C723.455 84.9467 723.108 84.5133 722.761 84.08C722.415 83.56 722.068 83.04 721.721 82.52C719.468 79.14 717.345 75.63 715.351 71.99C713.445 68.35 711.538 64.71 709.631 61.07C709.198 60.29 708.808 59.51 708.461 58.73C708.115 57.95 707.768 57.1267 707.421 56.26C706.815 54.2667 706.641 52.6633 706.901 51.45C707.248 50.15 708.158 48.8067 709.631 47.42C710.151 46.9867 710.715 46.5533 711.321 46.12C711.928 45.6867 712.361 45.1667 712.621 44.56C713.141 43.52 713.748 42.8267 714.441 42.48C715.221 42.0467 716.045 41.7867 716.911 41.7C718.298 41.44 719.641 41.2667 720.941 41.18C722.328 41.0933 723.715 41.05 725.101 41.05C728.221 41.2233 731.125 40.66 733.811 39.36C735.631 38.4067 736.541 36.9333 736.541 34.94C736.541 32.2533 736.151 29.7833 735.371 27.53C734.678 25.19 733.595 22.98 732.121 20.9C731.688 20.2067 731.081 19.73 730.301 19.47C729.608 19.1233 728.828 18.95 727.961 18.95C726.661 18.8633 725.361 18.95 724.061 19.21C722.848 19.47 721.635 19.8167 720.421 20.25C718.515 20.77 716.565 21.2467 714.571 21.68C712.578 22.0267 710.671 22.8067 708.851 24.02C707.118 25.1467 705.211 25.9267 703.131 26.36C701.138 26.7933 699.145 27.14 697.151 27.4C696.458 27.4867 695.721 27.4433 694.941 27.27C694.248 27.0967 693.555 26.9233 692.861 26.75C691.908 26.3167 691.561 25.6667 691.821 24.8C692.515 21.42 693.511 18.2133 694.811 15.18C696.111 12.1467 698.018 9.41667 700.531 6.99C700.791 6.73 701.051 6.47 701.311 6.20999C701.658 5.86333 701.831 5.42999 701.831 4.90999C700.965 4.90999 700.098 4.90999 699.231 4.90999C698.365 4.90999 697.498 4.95333 696.631 5.03999C693.858 5.12666 691.085 5.38667 688.311 5.82C685.538 6.16666 682.765 6.90333 679.991 8.02999C678.951 8.46333 678.475 9.28666 678.561 10.5C678.735 12.9267 678.735 15.3967 678.561 17.91C678.388 20.3367 677.955 22.72 677.261 25.06C676.915 26.36 676.611 27.66 676.351 28.96C676.178 30.1733 676.091 31.43 676.091 32.73C676.091 39.75 675.615 46.77 674.661 53.79C673.795 60.7233 673.361 67.7433 673.361 74.85C673.361 78.0567 673.448 81.3067 673.621 84.6C673.795 87.8933 674.401 91.1433 675.441 94.35C676.135 96.7767 676.785 99.29 677.391 101.89C678.085 104.49 678.605 107.047 678.951 109.56C679.298 112.853 681.205 114.543 684.671 114.63C687.618 114.803 689.438 113.287 690.131 110.08C690.825 106.787 691.171 103.493 691.171 100.2C691.258 96.9067 691.215 93.6133 691.041 90.32C690.955 87.8067 690.651 85.4233 690.131 83.17C689.611 80.83 689.265 78.4467 689.091 76.02C688.918 74.0267 688.701 72.0767 688.441 70.17C688.268 68.1767 688.398 66.1833 688.831 64.19C689.005 63.7567 689.135 63.2367 689.221 62.63C689.395 62.0233 689.785 61.6767 690.391 61.59C691.605 61.33 692.645 61.8933 693.511 63.28C693.945 63.8867 694.335 64.4933 694.681 65.1C695.028 65.7067 695.418 66.3567 695.851 67.05ZM721.331 48.33C724.711 48.2433 728.221 47.6367 731.861 46.51C733.421 46.0767 734.808 45.3833 736.021 44.43C737.321 43.39 738.405 42.1767 739.271 40.79C741.785 36.7167 743.388 31.9933 744.081 26.62C744.255 24.8867 744.081 23.3267 743.561 21.94C743.128 20.5533 742.435 19.2533 741.481 18.04C738.795 14.8333 735.848 11.8867 732.641 9.19999C730.995 7.81333 729.218 6.77333 727.311 6.07999C725.405 5.38666 723.325 5.51666 721.071 6.47C719.511 7.07666 717.908 7.33666 716.261 7.25C714.615 7.16333 712.968 6.81666 711.321 6.20999C710.455 5.95 709.545 5.73333 708.591 5.55999C707.725 5.38666 706.815 5.21333 705.861 5.03999C704.821 4.95333 703.998 5.21333 703.391 5.82C700.705 8.07333 698.538 10.7167 696.891 13.75C695.331 16.7833 694.205 20.0767 693.511 23.63C693.425 24.3233 693.468 24.7133 693.641 24.8C693.901 24.8867 694.291 24.8433 694.811 24.67C695.505 24.41 696.198 24.1933 696.891 24.02C697.671 23.8467 698.408 23.7167 699.101 23.63C701.528 23.37 703.911 23.0667 706.251 22.72C708.591 22.2867 710.931 21.7233 713.271 21.03C715.698 20.25 718.125 19.6 720.551 19.08C723.065 18.4733 725.621 18.04 728.221 17.78C730.821 17.52 733.118 18.0833 735.111 19.47C737.191 20.77 738.708 22.59 739.661 24.93C740.615 27.1833 740.831 29.74 740.311 32.6C739.791 35.5467 738.405 37.7567 736.151 39.23C734.505 40.3567 732.771 41.1367 730.951 41.57C729.131 42.0033 727.268 42.1767 725.361 42.09C722.241 42.09 719.251 42.35 716.391 42.87C715.871 42.9567 715.395 43.13 714.961 43.39C714.615 43.5633 714.398 43.9967 714.311 44.69C714.311 45.9033 714.875 46.7267 716.001 47.16C716.868 47.5067 717.735 47.7667 718.601 47.94C719.555 48.1133 720.465 48.2433 721.331 48.33ZM728.611 5.43C731.125 6.55666 733.248 8.03 734.981 9.84999C736.801 11.5833 738.621 13.36 740.441 15.18C742.001 16.8267 743.301 18.6033 744.341 20.51C745.381 22.4167 745.685 24.67 745.251 27.27C744.905 29.6967 744.385 32.08 743.691 34.42C742.998 36.76 741.958 38.97 740.571 41.05C740.485 41.31 740.355 41.57 740.181 41.83C740.008 42.0033 739.965 42.3067 740.051 42.74C741.005 41.96 741.828 41.18 742.521 40.4C743.301 39.5333 743.951 38.5367 744.471 37.41C745.771 34.6367 746.595 31.7333 746.941 28.7C747.288 25.6667 747.288 22.6333 746.941 19.6C746.595 16.5667 745.511 13.88 743.691 11.54C741.958 9.19999 739.748 7.46666 737.061 6.33999C734.375 5.12666 731.558 4.82333 728.611 5.43ZM672.061 79.14C672.148 78.62 672.191 78.23 672.191 77.97C672.191 77.6233 672.191 77.32 672.191 77.06C672.365 74.2867 672.451 71.5567 672.451 68.87C672.538 66.0967 672.668 63.3667 672.841 60.68C673.188 57.04 673.535 53.4433 673.881 49.89C674.315 46.25 674.531 42.61 674.531 38.97C674.531 36.4567 674.661 33.9867 674.921 31.56C675.181 29.0467 675.615 26.5767 676.221 24.15C676.655 22.1567 676.915 20.1633 677.001 18.17C677.175 16.1767 677.218 14.1833 677.131 12.19C677.131 12.0167 677.131 11.8 677.131 11.54C677.131 11.28 677.001 11.1067 676.741 11.02C676.481 10.9333 676.265 11.02 676.091 11.28C676.005 11.4533 675.875 11.6267 675.701 11.8C675.095 12.6667 674.705 13.7933 674.531 15.18C674.445 16.8267 674.315 18.43 674.141 19.99C674.055 21.55 674.055 23.1533 674.141 24.8C674.141 27.0533 673.751 29.22 672.971 31.3C672.538 32.6867 672.148 34.1167 671.801 35.59C671.541 36.9767 671.455 38.4067 671.541 39.88C671.628 41.8733 671.671 43.8667 671.671 45.86C671.671 47.8533 671.498 49.8467 671.151 51.84C670.631 55.3067 670.371 58.7733 670.371 62.24C670.458 65.62 670.545 69 670.631 72.38C670.718 73.5067 670.848 74.6333 671.021 75.76C671.195 76.8 671.541 77.9267 672.061 79.14ZM732.771 19.73C734.331 22.07 735.545 24.4967 736.411 27.01C737.365 29.5233 737.885 32.21 737.971 35.07C739.011 33.4233 739.445 31.5167 739.271 29.35C739.098 27.0967 738.448 25.06 737.321 23.24C736.281 21.42 734.765 20.25 732.771 19.73ZM711.451 37.8C711.365 38.06 711.278 38.45 711.191 38.97C711.191 39.49 711.105 39.9667 710.931 40.4C710.065 42.0467 709.198 43.7367 708.331 45.47C707.551 47.1167 706.555 48.6767 705.341 50.15C703.955 51.8833 702.221 52.49 700.141 51.97C699.535 51.7967 698.928 51.6233 698.321 51.45C697.801 51.2767 697.238 51.1467 696.631 51.06C695.245 50.8 694.205 50.2367 693.511 49.37C692.905 48.4167 692.515 47.2467 692.341 45.86C692.081 44.1267 691.951 42.48 691.951 40.92C692.038 39.2733 692.168 37.6267 692.341 35.98C692.515 35.1133 692.558 34.29 692.471 33.51C692.471 32.73 692.298 31.95 691.951 31.17C691.778 30.7367 691.691 30.39 691.691 30.13C691.691 29.7833 692.125 29.6533 692.991 29.74C693.945 29.8267 694.855 29.74 695.721 29.48C696.675 29.1333 697.585 28.9167 698.451 28.83C702.005 28.31 705.341 29.1333 708.461 31.3C709.415 31.9933 710.151 32.86 710.671 33.9C711.278 34.94 711.538 36.24 711.451 37.8ZM700.531 29.61C700.011 29.6967 699.448 29.7833 698.841 29.87C698.321 29.87 697.801 29.9133 697.281 30C696.328 30.1733 695.981 30.5633 696.241 31.17C696.588 32.2967 696.935 33.4667 697.281 34.68C697.628 35.8067 698.148 36.8467 698.841 37.8C699.275 38.2333 699.881 38.3633 700.661 38.19C701.875 37.8433 703.088 37.54 704.301 37.28C705.601 37.02 706.815 36.7167 707.941 36.37C709.848 35.6767 710.065 34.5067 708.591 32.86C707.465 31.7333 706.208 30.9967 704.821 30.65C703.435 30.2167 702.005 29.87 700.531 29.61ZM693.901 47.42C694.595 45.9467 695.201 44.56 695.721 43.26C696.241 41.96 696.761 40.7033 697.281 39.49C697.368 39.1433 697.411 38.84 697.411 38.58C697.498 38.32 697.455 38.06 697.281 37.8C696.848 36.76 696.415 35.7633 695.981 34.81C695.635 33.77 695.245 32.7733 694.811 31.82C694.725 31.6467 694.638 31.4733 694.551 31.3C694.465 31.04 694.248 30.9967 693.901 31.17C693.555 31.2567 693.468 31.6033 693.641 32.21C693.815 33.4233 693.815 34.6367 693.641 35.85C693.468 37.0633 693.338 38.2767 693.251 39.49C693.165 40.7033 693.165 41.96 693.251 43.26C693.338 44.56 693.555 45.9467 693.901 47.42ZM695.721 47.55C695.635 48.9367 696.155 49.8033 697.281 50.15C698.235 50.2367 699.145 50.4967 700.011 50.93C701.745 51.5367 703.175 51.06 704.301 49.5C705.341 48.0267 706.251 46.5533 707.031 45.08C707.811 43.52 708.635 42.0033 709.501 40.53C709.761 40.01 709.891 39.49 709.891 38.97C710.151 37.4967 709.631 36.9333 708.331 37.28C706.945 37.6267 705.515 38.0167 704.041 38.45C702.568 38.8833 701.095 39.1867 699.621 39.36C698.928 39.5333 698.451 39.88 698.191 40.4C697.671 41.5267 697.195 42.6967 696.761 43.91C696.415 45.1233 696.068 46.3367 695.721 47.55ZM730.431 87.07C731.038 87.1567 731.558 87.1133 731.991 86.94C732.425 86.68 732.815 86.3767 733.161 86.03C734.721 84.5567 736.151 82.9967 737.451 81.35C738.751 79.7033 739.835 77.9267 740.701 76.02C741.568 74.2867 742.045 72.51 742.131 70.69C742.305 68.87 741.871 67.05 740.831 65.23C740.138 64.1033 739.401 63.0633 738.621 62.11C737.841 61.07 736.975 60.16 736.021 59.38C733.941 57.6467 731.818 56 729.651 54.44C727.485 52.88 725.275 51.45 723.021 50.15C722.588 49.89 722.111 49.6733 721.591 49.5C721.158 49.3267 720.681 49.24 720.161 49.24C718.948 49.24 717.735 49.11 716.521 48.85C715.395 48.5033 714.311 47.8967 713.271 47.03C712.665 46.51 712.188 46.51 711.841 47.03C711.581 47.55 711.235 47.9833 710.801 48.33C710.108 48.7633 710.065 49.37 710.671 50.15C712.665 52.4033 714.311 54.9167 715.611 57.69C716.911 60.4633 718.125 63.2367 719.251 66.01C720.551 69.2167 721.938 72.38 723.411 75.5C724.885 78.5333 726.271 81.6533 727.571 84.86C727.831 85.64 728.221 86.2033 728.741 86.55C729.261 86.81 729.825 86.9833 730.431 87.07ZM726.011 85.9V84.99C724.105 80.4833 722.198 75.9767 720.291 71.47C718.385 66.9633 716.435 62.4567 714.441 57.95C713.921 56.7367 713.271 55.6533 712.491 54.7C711.798 53.66 711.105 52.62 710.411 51.58C710.238 51.4067 710.021 51.19 709.761 50.93C709.588 50.67 709.328 50.6267 708.981 50.8C708.635 50.8867 708.461 51.1033 708.461 51.45C708.461 51.7967 708.418 52.1 708.331 52.36C708.331 53.2267 708.375 54.0933 708.461 54.96C708.635 55.74 708.895 56.5633 709.241 57.43C710.715 60.8967 712.361 64.32 714.181 67.7C716.001 70.9933 717.865 74.2433 719.771 77.45C720.725 78.8367 721.635 80.2667 722.501 81.74C723.455 83.2133 724.625 84.6 726.011 85.9ZM680.511 115.02C680.685 115.193 680.771 115.323 680.771 115.41C680.771 115.583 680.815 115.713 680.901 115.8C681.075 115.887 681.205 115.973 681.291 116.06C681.465 116.147 681.595 116.233 681.681 116.32C683.415 116.667 685.061 116.797 686.621 116.71C688.268 116.71 689.871 116.233 691.431 115.28C691.865 115.107 692.298 114.63 692.731 113.85C693.338 112.723 693.858 111.553 694.291 110.34C694.811 109.127 695.115 107.87 695.201 106.57C695.375 103.537 695.461 100.503 695.461 97.47C695.461 94.4367 695.418 91.4467 695.331 88.5C695.245 86.2467 695.201 83.95 695.201 81.61C695.288 79.27 695.505 77.0167 695.851 74.85C696.285 72.3367 696.025 70.2133 695.071 68.48C694.118 66.66 693.035 64.8833 691.821 63.15C691.475 62.63 691.128 62.4567 690.781 62.63C690.435 62.7167 690.175 63.1067 690.001 63.8C689.915 64.4067 689.785 65.0567 689.611 65.75C689.438 66.4433 689.351 67.1367 689.351 67.83C689.525 70.5167 689.741 73.2033 690.001 75.89C690.348 78.5767 690.781 81.2633 691.301 83.95C692.081 88.2833 692.428 92.6167 692.341 96.95C692.341 101.283 691.995 105.617 691.301 109.95C690.955 112.29 690.088 113.937 688.701 114.89C687.315 115.843 685.538 116.06 683.371 115.54C682.418 115.367 681.465 115.193 680.511 115.02ZM713.271 99.42C713.445 98.9 713.488 98.51 713.401 98.25C713.315 97.99 713.185 97.73 713.011 97.47C711.538 94.0033 710.065 90.5367 708.591 87.07C707.205 83.5167 705.645 80.0933 703.911 76.8C703.045 75.0667 702.221 73.3767 701.441 71.73C700.748 70.0833 699.925 68.48 698.971 66.92C698.885 66.7467 698.755 66.53 698.581 66.27C698.408 66.01 698.235 65.9233 698.061 66.01C697.715 66.0967 697.541 66.3133 697.541 66.66C697.541 66.92 697.541 67.18 697.541 67.44C697.455 68.5667 697.455 69.6933 697.541 70.82C697.715 71.9467 698.018 73.0733 698.451 74.2C699.665 76.8867 700.878 79.6167 702.091 82.39C703.305 85.1633 704.648 87.85 706.121 90.45C707.075 92.0967 708.115 93.7 709.241 95.26C710.368 96.82 711.711 98.2067 713.271 99.42ZM717.171 101.37C718.211 101.977 719.121 101.89 719.901 101.11C721.721 99.4633 723.325 97.6867 724.711 95.78C726.185 93.7867 727.571 91.75 728.871 89.67C729.045 89.41 729.131 89.15 729.131 88.89C729.218 88.63 729.131 88.37 728.871 88.11C728.265 87.85 727.745 87.9367 727.311 88.37C726.965 88.7167 726.705 89.2367 726.531 89.93C726.271 91.1433 725.838 92.2267 725.231 93.18C724.625 94.0467 723.931 94.9133 723.151 95.78C722.198 96.6467 721.201 97.5567 720.161 98.51C719.121 99.4633 718.125 100.417 717.171 101.37ZM674.531 95.13C674.185 97.5567 674.358 99.8967 675.051 102.15C675.831 104.403 676.655 106.57 677.521 108.65C677.261 106.397 676.828 104.143 676.221 101.89C675.615 99.6367 675.051 97.3833 674.531 95.13ZM781.432 13.62C782.559 11.6267 783.815 9.80667 785.202 8.16C786.675 6.42666 787.845 4.51999 788.712 2.44C789.145 1.31333 789.709 0.663328 790.402 0.489997C791.182 0.229995 792.265 0.359994 793.652 0.879992C798.939 3.04666 804.225 5.17 809.512 7.25C814.799 9.32999 820.042 11.6267 825.242 14.14C826.629 14.7467 827.972 15.44 829.272 16.22C830.659 16.9133 831.785 17.9967 832.652 19.47C833.085 20.25 833.692 20.9433 834.472 21.55C835.252 22.07 835.945 22.6767 836.552 23.37C839.325 26.23 841.405 29.35 842.792 32.73C844.265 36.11 845.479 39.5767 846.432 43.13C846.952 45.21 846.172 46.64 844.092 47.42C843.139 47.7667 842.142 48.1133 841.102 48.46C840.149 48.72 839.152 48.85 838.112 48.85C836.119 48.9367 835.122 49.9767 835.122 51.97C835.209 53.27 835.295 54.57 835.382 55.87C835.469 57.17 835.555 58.5133 835.642 59.9C835.815 64.2333 835.989 68.61 836.162 73.03C836.422 77.45 836.682 81.87 836.942 86.29C837.115 90.3633 837.332 94.4367 837.592 98.51C837.939 102.497 838.415 106.527 839.022 110.6C839.109 110.86 839.152 111.207 839.152 111.64C839.325 113.72 839.195 114.933 838.762 115.28C838.329 115.713 836.985 115.843 834.732 115.67C832.305 115.41 829.879 114.847 827.452 113.98C825.025 113.2 822.599 112.507 820.172 111.9C818.352 111.467 817.269 111.337 816.922 111.51C816.575 111.77 816.575 112.767 816.922 114.5C817.009 114.933 817.052 115.367 817.052 115.8C817.139 116.32 817.182 116.797 817.182 117.23C817.355 118.53 816.705 119.05 815.232 118.79C812.025 118.01 808.819 117.1 805.612 116.06C802.405 115.107 799.502 113.417 796.902 110.99C794.475 108.91 792.742 106.527 791.702 103.84C790.662 101.153 790.185 98.3367 790.272 95.39C790.359 90.8833 790.532 86.42 790.792 82C791.139 77.58 791.442 73.1167 791.702 68.61C791.875 65.23 791.919 61.85 791.832 58.47C791.832 55.09 791.919 51.6667 792.092 48.2C792.179 46.8133 792.352 45.5133 792.612 44.3C792.959 43 793.349 41.7433 793.782 40.53C794.215 39.4033 794.215 38.71 793.782 38.45C793.435 38.1033 792.785 37.9733 791.832 38.06C789.145 38.2333 786.502 38.2333 783.902 38.06C781.302 37.8 778.659 37.4967 775.972 37.15C773.545 36.7167 772.679 35.5467 773.372 33.64C774.499 30.52 775.539 27.4 776.492 24.28C777.532 21.0733 778.875 17.9967 780.522 15.05C780.695 14.79 780.869 14.5733 781.042 14.4C781.215 14.14 781.345 13.88 781.432 13.62ZM786.632 9.19999C783.945 12.32 781.909 15.83 780.522 19.73C779.222 23.5433 777.792 27.3133 776.232 31.04C775.365 33.2067 775.105 34.55 775.452 35.07C775.885 35.5033 777.359 35.85 779.872 36.11C782.299 36.37 784.682 36.5 787.022 36.5C789.362 36.4133 791.745 36.37 794.172 36.37C796.512 36.37 797.119 37.3667 795.992 39.36C795.125 41.0067 794.519 42.6967 794.172 44.43C793.825 46.1633 793.609 47.9833 793.522 49.89C793.435 52.6633 793.305 55.48 793.132 58.34C793.045 61.1133 793.002 63.93 793.002 66.79C793.002 71.5567 792.872 76.28 792.612 80.96C792.352 85.64 792.222 90.32 792.222 95C792.222 98.4667 792.872 101.717 794.172 104.75C795.472 107.783 797.899 110.297 801.452 112.29C803.012 113.157 804.659 113.85 806.392 114.37C808.125 114.977 809.815 115.583 811.462 116.19C813.282 116.797 814.365 116.927 814.712 116.58C815.145 116.233 815.189 115.15 814.842 113.33C813.369 105.79 812.415 98.25 811.982 90.71C811.549 83.17 811.375 75.6733 811.462 68.22C811.549 64.9267 811.679 61.6767 811.852 58.47C812.112 55.1767 812.415 51.9267 812.762 48.72C812.935 46.4667 813.109 44.2567 813.282 42.09C813.455 39.9233 813.845 37.7567 814.452 35.59C814.712 34.6367 815.102 33.8567 815.622 33.25C816.142 32.6433 816.922 32.21 817.962 31.95C820.562 31.2567 822.599 30 824.072 28.18C825.632 26.36 826.932 24.3667 827.972 22.2C828.925 20.2067 829.229 18.9067 828.882 18.3C828.622 17.6067 827.365 16.7833 825.112 15.83C824.765 15.6567 824.375 15.4833 823.942 15.31C823.595 15.1367 823.205 14.9633 822.772 14.79C818.265 12.5367 813.672 10.5 808.992 8.67999C804.399 6.86 799.805 4.99666 795.212 3.08999C793.392 2.39666 792.265 2.13666 791.832 2.31C791.399 2.39666 790.705 3.17666 789.752 4.65C789.232 5.43 788.712 6.21 788.192 6.99C787.672 7.77 787.152 8.50666 786.632 9.19999ZM832.912 21.94C832.219 21.2467 831.655 21.03 831.222 21.29C830.875 21.55 830.572 21.9833 830.312 22.59C829.445 24.67 828.275 26.5333 826.802 28.18C825.415 29.8267 823.812 31.3 821.992 32.6C821.385 32.86 821.039 33.2933 820.952 33.9C820.605 36.0667 820.345 38.2767 820.172 40.53C819.999 42.7833 819.955 45.0367 820.042 47.29C820.215 49.0233 821.169 49.76 822.902 49.5C825.935 49.0667 828.969 48.6333 832.002 48.2C835.122 47.68 838.155 47.1167 841.102 46.51C843.789 46.0767 844.829 44.5167 844.222 41.83C843.789 39.8367 843.225 38.1467 842.532 36.76C841.319 34.0733 840.062 31.43 838.762 28.83C837.549 26.1433 835.599 23.8467 832.912 21.94ZM817.832 34.68C816.965 35.98 816.359 37.41 816.012 38.97C815.752 40.4433 815.535 41.96 815.362 43.52C814.842 48.8933 814.409 54.2667 814.062 59.64C813.715 65.0133 813.499 70.3867 813.412 75.76C813.412 80.7867 813.542 85.8133 813.802 90.84C814.149 95.8667 814.755 100.893 815.622 105.92C815.795 106.613 816.012 107.263 816.272 107.87C816.532 108.39 817.095 108.823 817.962 109.17C820.562 110.037 823.162 110.903 825.762 111.77C828.449 112.637 831.135 113.287 833.822 113.72C835.382 113.893 836.379 113.807 836.812 113.46C837.245 113.113 837.375 112.203 837.202 110.73C836.682 106.917 836.249 103.103 835.902 99.29C835.642 95.4767 835.382 91.6633 835.122 87.85C834.775 81.6967 834.429 75.5867 834.082 69.52C833.822 63.4533 833.692 57.3867 833.692 51.32C833.692 49.9333 833.042 49.37 831.742 49.63C830.962 49.8033 830.139 50.02 829.272 50.28C828.492 50.4533 827.712 50.6267 826.932 50.8C823.465 51.58 820.995 51.3633 819.522 50.15C818.049 48.9367 817.485 46.5533 817.832 43C818.005 41.6133 818.092 40.2267 818.092 38.84C818.179 37.4533 818.092 36.0667 817.832 34.68ZM878.057 107.22C878.231 104.447 878.231 101.803 878.057 99.29C877.884 96.69 877.711 94.09 877.537 91.49C877.451 88.4567 877.321 85.4667 877.147 82.52C877.061 79.4867 877.061 76.4533 877.147 73.42C877.234 70.1267 877.581 66.8333 878.187 63.54C878.881 60.16 879.661 56.8667 880.527 53.66C881.567 49.5867 881.914 45.6 881.567 41.7C881.221 38.4067 881.004 35.1133 880.917 31.82C880.917 28.44 881.134 25.1033 881.567 21.81C881.741 20.8567 881.957 19.9033 882.217 18.95C882.564 17.9967 882.737 17.0433 882.737 16.09C882.824 15.31 882.867 14.5733 882.867 13.88C882.867 13.1867 882.781 12.4933 882.607 11.8C882.174 9.63333 882.911 8.15999 884.817 7.37999C886.637 6.59999 888.501 5.99333 890.407 5.55999C892.314 5.04 894.264 4.78 896.257 4.78C898.164 4.78 899.117 5.68999 899.117 7.50999C899.204 8.37666 899.247 9.2 899.247 9.98C899.247 10.76 899.247 11.54 899.247 12.32C899.247 13.7067 899.811 14.14 900.937 13.62C902.757 12.9267 904.187 12.7967 905.227 13.23C906.267 13.5767 907.134 15.1367 907.827 17.91C908.781 22.07 909.734 26.23 910.687 30.39C911.727 34.4633 912.637 38.58 913.417 42.74C913.851 45.1667 914.154 47.6367 914.327 50.15C914.587 52.5767 914.761 55.0467 914.847 57.56C914.847 59.9867 915.194 62.37 915.887 64.71C916.581 67.05 917.231 69.3467 917.837 71.6C918.531 74.0267 919.137 76.4533 919.657 78.88C920.177 81.3067 920.611 83.7767 920.957 86.29C921.391 89.2367 921.867 92.2267 922.387 95.26C922.994 98.2933 923.471 101.327 923.817 104.36C924.077 106.18 924.164 107.957 924.077 109.69C923.991 111.51 923.644 113.287 923.037 115.02C922.777 115.8 922.344 116.32 921.737 116.58C921.217 116.927 920.611 117.187 919.917 117.36C918.011 117.707 916.191 117.707 914.457 117.36C912.724 117.013 910.991 116.407 909.257 115.54C907.957 114.933 906.527 114.76 904.967 115.02C902.281 115.28 899.551 115.627 896.777 116.06C894.091 116.493 891.361 116.667 888.587 116.58C887.287 116.493 885.987 116.363 884.687 116.19C883.474 116.103 882.261 116.017 881.047 115.93C880.354 115.757 880.007 115.497 880.007 115.15C879.747 113.677 879.184 112.333 878.317 111.12C877.451 109.907 877.364 108.607 878.057 107.22ZM897.557 11.15C897.557 10.9767 897.557 10.7167 897.557 10.37C897.557 9.93666 897.514 9.50333 897.427 9.07C897.341 7.68333 897.081 6.81667 896.647 6.47C896.301 6.12333 895.391 6.03666 893.917 6.20999C892.964 6.29666 892.011 6.46999 891.057 6.72999C890.104 6.90333 889.151 7.16333 888.197 7.50999C886.291 8.03 885.121 8.59333 884.687 9.19999C884.341 9.72 884.297 11.02 884.557 13.1C884.557 13.5333 884.557 14.01 884.557 14.53C884.557 14.9633 884.514 15.3967 884.427 15.83C884.427 16.4367 884.514 16.9133 884.687 17.26C884.947 17.6067 885.467 17.7367 886.247 17.65C887.547 17.39 888.804 17.1733 890.017 17C891.317 16.74 892.617 16.48 893.917 16.22C895.391 15.8733 896.344 15.3967 896.777 14.79C897.211 14.0967 897.471 12.8833 897.557 11.15ZM915.367 116.06C917.794 116.147 919.267 115.887 919.787 115.28C920.394 114.76 920.394 113.46 919.787 111.38C918.574 106.787 917.491 102.15 916.537 97.47C915.671 92.7033 915.021 87.9367 914.587 83.17C914.327 78.9233 914.067 74.72 913.807 70.56C913.547 66.4 913.374 62.1967 913.287 57.95C913.201 54.6567 913.071 51.4067 912.897 48.2C912.724 44.9067 912.161 41.6567 911.207 38.45C910.254 35.1567 909.344 31.82 908.477 28.44C907.697 25.06 906.831 21.68 905.877 18.3C905.791 17.8667 905.617 17.4333 905.357 17C905.184 16.48 905.011 16.0033 904.837 15.57C904.577 14.8767 903.971 14.53 903.017 14.53C899.551 14.4433 898.207 16.0033 898.987 19.21C899.854 22.59 900.721 25.97 901.587 29.35C902.541 32.73 903.494 36.0667 904.447 39.36C904.967 41.0933 905.357 42.87 905.617 44.69C905.877 46.51 905.921 48.33 905.747 50.15C905.661 50.93 905.617 51.71 905.617 52.49C905.617 53.27 905.617 54.0067 905.617 54.7C905.791 58.7733 906.094 62.8033 906.527 66.79C907.047 70.7767 907.524 74.8067 907.957 78.88C908.391 83.3867 908.607 87.8933 908.607 92.4C908.694 96.9067 908.867 101.413 909.127 105.92C909.127 106.527 909.127 107.177 909.127 107.87C909.214 108.477 909.214 109.127 909.127 109.82C908.867 111.727 908.911 112.983 909.257 113.59C909.604 114.197 910.731 114.803 912.637 115.41C913.071 115.497 913.547 115.583 914.067 115.67C914.587 115.843 915.021 115.973 915.367 116.06ZM888.067 115.28C890.234 115.627 892.531 115.497 894.957 114.89C897.471 114.37 899.984 114.067 902.497 113.98C903.451 113.893 904.057 113.677 904.317 113.33C904.577 112.983 904.621 112.377 904.447 111.51C903.927 108.217 903.537 104.88 903.277 101.5C903.104 98.0333 903.017 94.5667 903.017 91.1C903.191 78.5333 902.281 66.14 900.287 53.92C899.681 49.8467 899.031 45.8167 898.337 41.83C897.644 37.7567 897.081 33.7267 896.647 29.74C896.474 28.0067 896.301 26.23 896.127 24.41C896.041 22.59 896.301 20.8133 896.907 19.08C897.341 17.52 896.734 16.9133 895.087 17.26C892.574 17.8667 889.887 18.3867 887.027 18.82C884.947 19.08 883.777 20.25 883.517 22.33C883.257 23.9767 883.041 25.6667 882.867 27.4C882.694 29.0467 882.607 30.7367 882.607 32.47C882.521 34.6367 882.477 36.8467 882.477 39.1C882.564 41.2667 882.824 43.39 883.257 45.47C883.517 46.5967 883.691 47.6367 883.777 48.59C883.864 49.5433 883.821 50.5833 883.647 51.71C883.387 53.27 883.257 54.8733 883.257 56.52C883.257 58.08 883.214 59.6833 883.127 61.33C883.127 64.19 883.084 67.05 882.997 69.91C882.911 72.77 882.997 75.63 883.257 78.49C883.431 80.3967 883.387 82.3467 883.127 84.34C882.867 86.3333 882.737 88.3267 882.737 90.32C882.737 93.5267 882.737 96.7333 882.737 99.94C882.737 103.06 882.521 106.137 882.087 109.17C881.827 111.25 881.697 112.68 881.697 113.46C881.784 114.24 882.304 114.673 883.257 114.76C884.211 114.847 885.814 115.02 888.067 115.28ZM906.527 111.77C907.047 111.077 907.307 110.47 907.307 109.95C907.307 109.43 907.351 108.91 907.437 108.39C907.697 106.483 907.697 104.62 907.437 102.8C907.177 100.893 907.091 98.9867 907.177 97.08C907.264 94.3067 907.221 91.5333 907.047 88.76C906.961 85.9867 906.787 83.2567 906.527 80.57C906.267 77.2767 905.921 73.94 905.487 70.56C905.054 67.18 904.664 63.8433 904.317 60.55C904.231 59.6833 904.144 58.8167 904.057 57.95C903.971 57.0833 903.971 56.2167 904.057 55.35C904.751 51.0167 904.577 46.8567 903.537 42.87C902.497 38.7967 901.457 34.7667 900.417 30.78C900.157 29.8267 899.897 28.83 899.637 27.79C899.377 26.6633 898.944 25.6667 898.337 24.8C898.424 28.6133 898.597 32.4267 898.857 36.24C899.204 39.9667 899.811 43.6933 900.677 47.42C901.457 50.9733 902.064 54.5267 902.497 58.08C902.931 61.6333 903.321 65.1867 903.667 68.74C903.841 70.4733 904.014 72.25 904.187 74.07C904.447 75.8033 904.534 77.5367 904.447 79.27C904.361 83.95 904.447 88.63 904.707 93.31C904.967 97.9033 905.271 102.54 905.617 107.22C905.704 107.827 905.791 108.52 905.877 109.3C905.964 110.08 906.181 110.903 906.527 111.77ZM881.697 57.04C880.831 58.9467 880.181 61.2867 879.747 64.06C879.314 66.7467 879.011 69.6067 878.837 72.64C878.751 75.5867 878.707 78.36 878.707 80.96C878.881 85.5533 879.141 90.1467 879.487 94.74C879.834 99.3333 879.877 103.927 879.617 108.52C879.531 108.78 879.487 109.04 879.487 109.3C879.574 109.56 879.921 109.863 880.527 110.21C881.134 101.37 881.481 92.53 881.567 83.69C881.741 74.85 881.784 65.9667 881.697 57.04ZM921.867 110.73C922.041 103.97 921.521 97.34 920.307 90.84C919.181 84.2533 917.664 77.71 915.757 71.21C915.844 77.97 916.321 84.6433 917.187 91.23C918.141 97.8167 919.701 104.317 921.867 110.73ZM956.267 103.06C956.613 99.7667 957.003 96.5167 957.437 93.31C957.87 90.0167 958.13 86.7233 958.217 83.43C958.303 82.4767 958.39 81.5233 958.477 80.57C958.65 79.53 958.737 78.49 958.737 77.45C958.91 74.4167 959.69 71.6 961.077 69C962.463 66.3133 963.633 63.6267 964.587 60.94C964.673 60.5933 964.803 60.3333 964.977 60.16C965.15 59.9 965.28 59.64 965.367 59.38C966.58 56.9533 968.01 55.3067 969.657 54.44C971.39 53.5733 973.6 53.3133 976.287 53.66C977.76 53.8333 978.497 54.57 978.497 55.87C978.497 56.4767 978.497 57.1267 978.497 57.82C978.497 58.5133 978.41 59.1633 978.237 59.77C977.11 63.93 976.807 68.09 977.327 72.25C977.933 76.41 978.497 80.5267 979.017 84.6C979.277 86.94 980.013 88.5 981.227 89.28C982.527 90.06 984.303 90.2767 986.557 89.93C991.063 89.2367 994.747 87.4167 997.607 84.47C1000.55 81.5233 1002.07 78.0567 1002.16 74.07C1002.16 72.25 1001.9 70.5167 1001.38 68.87C1000.94 67.2233 999.99 65.75 998.517 64.45C997.997 63.8433 997.52 63.2367 997.087 62.63C995.7 60.7233 994.14 59.1633 992.407 57.95C990.76 56.65 988.637 55.8267 986.037 55.48C982.57 55.0467 979.71 53.66 977.457 51.32C975.203 48.98 973.557 46.2933 972.517 43.26C971.477 40.2267 971.043 37.4967 971.217 35.07C971.39 32.73 971.52 30.39 971.607 28.05C971.78 25.71 972.17 23.4133 972.777 21.16C973.383 18.82 974.163 16.61 975.117 14.53C976.157 12.45 977.327 10.4133 978.627 8.42C979.753 6.77333 981.313 5.69 983.307 5.17C984.78 4.73666 986.21 4.30333 987.597 3.86999C989.07 3.34999 990.543 3.00333 992.017 2.83C996.003 2.39667 999.47 3.35 1002.42 5.68999C1004.32 7.16333 1005.93 8.85333 1007.23 10.76C1008.61 12.6667 1009.83 14.7033 1010.87 16.87C1011.65 18.43 1011.34 19.8167 1009.96 21.03C1008.66 22.4167 1007.44 23.89 1006.32 25.45C1005.19 26.9233 1003.98 28.3533 1002.68 29.74C1001.38 31.1267 1000.9 32.7733 1001.25 34.68C1001.68 36.5867 1002.72 38.1467 1004.37 39.36C1007.66 41.7867 1010.95 44.2133 1014.25 46.64C1017.63 48.98 1021.18 51.0167 1024.91 52.75C1026.64 53.53 1028.2 54.5267 1029.59 55.74C1030.97 56.9533 1032.32 58.2533 1033.62 59.64C1034.57 60.68 1035.52 61.7633 1036.48 62.89C1037.43 63.93 1038.47 64.9267 1039.6 65.88C1040.9 67.0933 1041.68 68.5233 1041.94 70.17C1042.2 71.8167 1042.11 73.4633 1041.68 75.11C1040.12 80.9167 1037.6 85.8133 1034.14 89.8C1030.67 93.7867 1025.86 96.5167 1019.71 97.99C1018.32 98.3367 1017.02 98.8133 1015.81 99.42C1014.68 100.027 1013.77 101.067 1013.08 102.54C1012.9 103.147 1012.56 103.71 1012.04 104.23C1011.6 104.75 1011.17 105.183 1010.74 105.53C1004.67 110.21 998.213 113.633 991.367 115.8C984.607 117.967 977.37 118.357 969.657 116.97C967.75 116.537 965.93 115.887 964.197 115.02C962.55 114.153 960.99 113.157 959.517 112.03C958.043 110.817 957.133 109.43 956.787 107.87C956.44 106.31 956.267 104.707 956.267 103.06ZM959.647 86.29C959.56 87.4167 959.647 88.5 959.907 89.54C960.253 90.4933 960.513 91.49 960.687 92.53C961.207 95.2167 961.64 97.9467 961.987 100.72C962.42 103.493 963.07 106.223 963.937 108.91C964.543 110.643 965.41 112.117 966.537 113.33C967.663 114.543 969.18 115.323 971.087 115.67C974.293 116.277 977.76 116.45 981.487 116.19C984.693 116.017 987.727 115.41 990.587 114.37C993.533 113.417 996.393 112.29 999.167 110.99C1001.68 109.863 1004.15 108.65 1006.58 107.35C1009.09 106.05 1010.95 104.1 1012.17 101.5C1016.5 92.66 1017.54 84.47 1015.29 76.93C1013.12 69.39 1008.48 62.7167 1001.38 56.91C998.69 54.6567 996.003 52.49 993.317 50.41C990.63 48.33 988.16 45.9467 985.907 43.26C984.173 41.0067 983.48 38.84 983.827 36.76C984.173 34.5933 985.647 32.86 988.247 31.56C988.68 31.3867 989.027 31.2133 989.287 31.04C989.633 30.78 989.937 30.4767 990.197 30.13C991.237 28.6567 992.537 27.53 994.097 26.75C995.657 25.8833 997.26 25.19 998.907 24.67C999.6 24.41 1000.34 24.15 1001.12 23.89C1001.9 23.63 1002.63 23.37 1003.33 23.11C1005.06 22.4167 1006.1 21.6367 1006.45 20.77C1006.79 19.9033 1006.58 18.69 1005.8 17.13C1004.93 15.4833 1003.98 13.9233 1002.94 12.45C1001.98 10.89 1000.81 9.54666 999.427 8.42C997.78 7.03333 995.787 6.12333 993.447 5.68999C991.193 5.16999 988.983 5.12666 986.817 5.55999C984.65 5.90666 982.83 6.72999 981.357 8.02999C978.67 10.37 976.677 13.36 975.377 17C974.077 20.5533 973.427 24.2367 973.427 28.05C973.513 31.7767 974.163 35.1133 975.377 38.06C976.677 41.0933 978.367 43.8667 980.447 46.38C982.613 48.8933 985.17 50.9733 988.117 52.62C990.11 53.7467 991.887 55.09 993.447 56.65C995.093 58.1233 996.697 59.6833 998.257 61.33C1000.08 63.2367 1001.46 65.3167 1002.42 67.57C1003.46 69.7367 1003.93 72.2067 1003.85 74.98C1003.85 77.9267 1002.85 80.7 1000.86 83.3C998.863 85.8133 996.393 87.85 993.447 89.41C990.5 90.8833 987.51 91.62 984.477 91.62C981.183 91.4467 979.06 90.0167 978.107 87.33C977.587 85.9433 977.197 84.6867 976.937 83.56C976.59 80.96 976.287 78.36 976.027 75.76C975.767 73.0733 975.593 70.3867 975.507 67.7C975.507 67.0067 975.42 66.3567 975.247 65.75C975.16 65.1433 974.64 64.8833 973.687 64.97C971 65.0567 968.357 65.7933 965.757 67.18C963.243 68.5667 961.683 70.8633 961.077 74.07C960.73 76.0633 960.47 78.1 960.297 80.18C960.123 82.26 959.907 84.2967 959.647 86.29ZM992.667 29.61C995.18 29.9567 997.737 29.5233 1000.34 28.31C1002.94 27.0967 1004.54 25.6233 1005.15 23.89C1003.07 24.7567 1000.9 25.45 998.647 25.97C996.48 26.4033 994.487 27.6167 992.667 29.61ZM1033.1 62.11C1031.97 60.55 1030.71 59.0767 1029.33 57.69C1027.94 56.3033 1026.34 55.22 1024.52 54.44C1020.53 52.7067 1016.8 50.54 1013.34 47.94C1009.87 45.34 1006.36 42.7833 1002.81 40.27C1001.85 39.5767 1001.12 38.7967 1000.6 37.93C1000.08 36.9767 999.687 35.9367 999.427 34.81C999.34 34.1167 999.427 33.3367 999.687 32.47C1000.03 31.6033 999.86 31.04 999.167 30.78C998.56 30.4333 997.823 30.39 996.957 30.65C996.177 30.91 995.397 31.1267 994.617 31.3C994.443 31.3867 994.227 31.43 993.967 31.43C991.973 31.7767 991.41 32.9467 992.277 34.94C992.623 35.5467 992.97 36.11 993.317 36.63C993.663 37.15 994.14 37.5833 994.747 37.93C996.48 39.0567 998.17 40.27 999.817 41.57C1001.46 42.87 1003.24 43.9533 1005.15 44.82C1010.09 47.16 1014.29 50.3233 1017.76 54.31C1019.84 56.7367 1022.26 58.34 1025.04 59.12C1027.81 59.9 1030.5 60.8967 1033.1 62.11ZM1040.38 72.25C1040.38 70.8633 1040.03 69.5633 1039.34 68.35C1038.73 67.1367 1037.91 66.3567 1036.87 66.01C1034.7 65.0567 1032.53 64.06 1030.37 63.02C1028.2 61.98 1025.99 61.07 1023.74 60.29C1022.44 59.8567 1021.22 59.2933 1020.1 58.6C1018.97 57.82 1017.93 56.9533 1016.98 56C1015.33 54.3533 1013.68 52.75 1012.04 51.19C1010.39 49.5433 1008.48 48.2433 1006.32 47.29C1004.06 46.1633 1001.9 44.8633 999.817 43.39C997.823 41.83 995.7 40.4 993.447 39.1C992.753 38.6667 992.147 38.1033 991.627 37.41C991.193 36.63 990.803 35.85 990.457 35.07C990.283 34.6367 990.11 34.2033 989.937 33.77C989.85 33.3367 989.547 33.0767 989.027 32.99C988.42 32.99 987.9 33.2067 987.467 33.64C987.033 33.9867 986.687 34.3767 986.427 34.81C985.82 35.85 985.43 36.9333 985.257 38.06C985.083 39.1 985.387 40.0967 986.167 41.05C987.987 43.0433 989.72 45.1233 991.367 47.29C993.1 49.37 995.18 51.1033 997.607 52.49C1000.73 54.1367 1003.46 56.1733 1005.8 58.6C1008.14 61.0267 1010.22 63.67 1012.04 66.53C1013.6 68.9567 1014.9 71.47 1015.94 74.07C1017.06 76.67 1017.67 79.4433 1017.76 82.39C1017.93 84.47 1017.84 86.55 1017.5 88.63C1017.15 90.6233 1016.76 92.6167 1016.33 94.61C1016.07 95.65 1016.07 96.3433 1016.33 96.69C1016.59 96.95 1017.28 96.9933 1018.41 96.82C1024.04 95.8667 1028.46 93.6567 1031.67 90.19C1034.87 86.6367 1037.43 82.39 1039.34 77.45C1039.6 76.67 1039.86 75.8467 1040.12 74.98C1040.38 74.0267 1040.46 73.1167 1040.38 72.25ZM973.817 39.49C973.817 41.57 974.38 43.6933 975.507 45.86C976.72 47.94 978.28 49.7167 980.187 51.19C982.18 52.6633 984.26 53.53 986.427 53.79C983.567 51.8833 981.183 49.7167 979.277 47.29C977.37 44.7767 975.55 42.1767 973.817 39.49ZM973.687 55.22C971.693 55.22 970.047 55.87 968.747 57.17C967.447 58.3833 966.753 59.9433 966.667 61.85C966.667 62.4567 966.71 63.0633 966.797 63.67C966.97 64.19 967.49 64.4067 968.357 64.32C969.31 64.1467 970.263 64.0167 971.217 63.93C972.17 63.7567 973.08 63.54 973.947 63.28C974.9 63.02 975.593 62.1967 976.027 60.81C976.547 59.3367 976.72 57.9933 976.547 56.78C976.46 55.8267 976.113 55.35 975.507 55.35C974.9 55.2633 974.293 55.22 973.687 55.22ZM959.387 96.04C958.347 98.4667 957.783 100.85 957.697 103.19C957.697 105.443 958.173 107.35 959.127 108.91C960.08 110.557 961.38 111.553 963.027 111.9C962.333 109.3 961.64 106.7 960.947 104.1C960.34 101.413 959.82 98.7267 959.387 96.04ZM1072.66 13.62C1073.79 11.6267 1075.05 9.80667 1076.43 8.16C1077.91 6.42666 1079.08 4.51999 1079.94 2.44C1080.38 1.31333 1080.94 0.663328 1081.63 0.489997C1082.41 0.229995 1083.5 0.359994 1084.88 0.879992C1090.17 3.04666 1095.46 5.17 1100.74 7.25C1106.03 9.32999 1111.27 11.6267 1116.47 14.14C1117.86 14.7467 1119.2 15.44 1120.5 16.22C1121.89 16.9133 1123.02 17.9967 1123.88 19.47C1124.32 20.25 1124.92 20.9433 1125.7 21.55C1126.48 22.07 1127.18 22.6767 1127.78 23.37C1130.56 26.23 1132.64 29.35 1134.02 32.73C1135.5 36.11 1136.71 39.5767 1137.66 43.13C1138.18 45.21 1137.4 46.64 1135.32 47.42C1134.37 47.7667 1133.37 48.1133 1132.33 48.46C1131.38 48.72 1130.38 48.85 1129.34 48.85C1127.35 48.9367 1126.35 49.9767 1126.35 51.97C1126.44 53.27 1126.53 54.57 1126.61 55.87C1126.7 57.17 1126.79 58.5133 1126.87 59.9C1127.05 64.2333 1127.22 68.61 1127.39 73.03C1127.65 77.45 1127.91 81.87 1128.17 86.29C1128.35 90.3633 1128.56 94.4367 1128.82 98.51C1129.17 102.497 1129.65 106.527 1130.25 110.6C1130.34 110.86 1130.38 111.207 1130.38 111.64C1130.56 113.72 1130.43 114.933 1129.99 115.28C1129.56 115.713 1128.22 115.843 1125.96 115.67C1123.54 115.41 1121.11 114.847 1118.68 113.98C1116.26 113.2 1113.83 112.507 1111.4 111.9C1109.58 111.467 1108.5 111.337 1108.15 111.51C1107.81 111.77 1107.81 112.767 1108.15 114.5C1108.24 114.933 1108.28 115.367 1108.28 115.8C1108.37 116.32 1108.41 116.797 1108.41 117.23C1108.59 118.53 1107.94 119.05 1106.46 118.79C1103.26 118.01 1100.05 117.1 1096.84 116.06C1093.64 115.107 1090.73 113.417 1088.13 110.99C1085.71 108.91 1083.97 106.527 1082.93 103.84C1081.89 101.153 1081.42 98.3367 1081.5 95.39C1081.59 90.8833 1081.76 86.42 1082.02 82C1082.37 77.58 1082.67 73.1167 1082.93 68.61C1083.11 65.23 1083.15 61.85 1083.06 58.47C1083.06 55.09 1083.15 51.6667 1083.32 48.2C1083.41 46.8133 1083.58 45.5133 1083.84 44.3C1084.19 43 1084.58 41.7433 1085.01 40.53C1085.45 39.4033 1085.45 38.71 1085.01 38.45C1084.67 38.1033 1084.02 37.9733 1083.06 38.06C1080.38 38.2333 1077.73 38.2333 1075.13 38.06C1072.53 37.8 1069.89 37.4967 1067.2 37.15C1064.78 36.7167 1063.91 35.5467 1064.6 33.64C1065.73 30.52 1066.77 27.4 1067.72 24.28C1068.76 21.0733 1070.11 17.9967 1071.75 15.05C1071.93 14.79 1072.1 14.5733 1072.27 14.4C1072.45 14.14 1072.58 13.88 1072.66 13.62ZM1077.86 9.19999C1075.18 12.32 1073.14 15.83 1071.75 19.73C1070.45 23.5433 1069.02 27.3133 1067.46 31.04C1066.6 33.2067 1066.34 34.55 1066.68 35.07C1067.12 35.5033 1068.59 35.85 1071.1 36.11C1073.53 36.37 1075.91 36.5 1078.25 36.5C1080.59 36.4133 1082.98 36.37 1085.4 36.37C1087.74 36.37 1088.35 37.3667 1087.22 39.36C1086.36 41.0067 1085.75 42.6967 1085.4 44.43C1085.06 46.1633 1084.84 47.9833 1084.75 49.89C1084.67 52.6633 1084.54 55.48 1084.36 58.34C1084.28 61.1133 1084.23 63.93 1084.23 66.79C1084.23 71.5567 1084.1 76.28 1083.84 80.96C1083.58 85.64 1083.45 90.32 1083.45 95C1083.45 98.4667 1084.1 101.717 1085.4 104.75C1086.7 107.783 1089.13 110.297 1092.68 112.29C1094.24 113.157 1095.89 113.85 1097.62 114.37C1099.36 114.977 1101.05 115.583 1102.69 116.19C1104.51 116.797 1105.6 116.927 1105.94 116.58C1106.38 116.233 1106.42 115.15 1106.07 113.33C1104.6 105.79 1103.65 98.25 1103.21 90.71C1102.78 83.17 1102.61 75.6733 1102.69 68.22C1102.78 64.9267 1102.91 61.6767 1103.08 58.47C1103.34 55.1767 1103.65 51.9267 1103.99 48.72C1104.17 46.4667 1104.34 44.2567 1104.51 42.09C1104.69 39.9233 1105.08 37.7567 1105.68 35.59C1105.94 34.6367 1106.33 33.8567 1106.85 33.25C1107.37 32.6433 1108.15 32.21 1109.19 31.95C1111.79 31.2567 1113.83 30 1115.3 28.18C1116.86 26.36 1118.16 24.3667 1119.2 22.2C1120.16 20.2067 1120.46 18.9067 1120.11 18.3C1119.85 17.6067 1118.6 16.7833 1116.34 15.83C1116 15.6567 1115.61 15.4833 1115.17 15.31C1114.83 15.1367 1114.44 14.9633 1114 14.79C1109.5 12.5367 1104.9 10.5 1100.22 8.67999C1095.63 6.86 1091.04 4.99666 1086.44 3.08999C1084.62 2.39666 1083.5 2.13666 1083.06 2.31C1082.63 2.39666 1081.94 3.17666 1080.98 4.65C1080.46 5.43 1079.94 6.21 1079.42 6.99C1078.9 7.77 1078.38 8.50666 1077.86 9.19999ZM1124.14 21.94C1123.45 21.2467 1122.89 21.03 1122.45 21.29C1122.11 21.55 1121.8 21.9833 1121.54 22.59C1120.68 24.67 1119.51 26.5333 1118.03 28.18C1116.65 29.8267 1115.04 31.3 1113.22 32.6C1112.62 32.86 1112.27 33.2933 1112.18 33.9C1111.84 36.0667 1111.58 38.2767 1111.4 40.53C1111.23 42.7833 1111.19 45.0367 1111.27 47.29C1111.45 49.0233 1112.4 49.76 1114.13 49.5C1117.17 49.0667 1120.2 48.6333 1123.23 48.2C1126.35 47.68 1129.39 47.1167 1132.33 46.51C1135.02 46.0767 1136.06 44.5167 1135.45 41.83C1135.02 39.8367 1134.46 38.1467 1133.76 36.76C1132.55 34.0733 1131.29 31.43 1129.99 28.83C1128.78 26.1433 1126.83 23.8467 1124.14 21.94ZM1109.06 34.68C1108.2 35.98 1107.59 37.41 1107.24 38.97C1106.98 40.4433 1106.77 41.96 1106.59 43.52C1106.07 48.8933 1105.64 54.2667 1105.29 59.64C1104.95 65.0133 1104.73 70.3867 1104.64 75.76C1104.64 80.7867 1104.77 85.8133 1105.03 90.84C1105.38 95.8667 1105.99 100.893 1106.85 105.92C1107.03 106.613 1107.24 107.263 1107.5 107.87C1107.76 108.39 1108.33 108.823 1109.19 109.17C1111.79 110.037 1114.39 110.903 1116.99 111.77C1119.68 112.637 1122.37 113.287 1125.05 113.72C1126.61 113.893 1127.61 113.807 1128.04 113.46C1128.48 113.113 1128.61 112.203 1128.43 110.73C1127.91 106.917 1127.48 103.103 1127.13 99.29C1126.87 95.4767 1126.61 91.6633 1126.35 87.85C1126.01 81.6967 1125.66 75.5867 1125.31 69.52C1125.05 63.4533 1124.92 57.3867 1124.92 51.32C1124.92 49.9333 1124.27 49.37 1122.97 49.63C1122.19 49.8033 1121.37 50.02 1120.5 50.28C1119.72 50.4533 1118.94 50.6267 1118.16 50.8C1114.7 51.58 1112.23 51.3633 1110.75 50.15C1109.28 48.9367 1108.72 46.5533 1109.06 43C1109.24 41.6133 1109.32 40.2267 1109.32 38.84C1109.41 37.4533 1109.32 36.0667 1109.06 34.68Z" fill="url(#paint0_linear_4_9)"/>
<defs>
<linearGradient id="paint0_linear_4_9" x1="587" y1="-33" x2="587" y2="142" gradientUnits="userSpaceOnUse">
<stop offset="0.338542" stop-color="#C43030"/>
<stop offset="1" stop-color="#FFBF1C" stop-opacity="0"/>
</linearGradient>
</defs>
</svg>
